<?xml version="1.0" encoding="utf-8"?>
<!-- Generator: Adobe Illustrator 18.0.0, SVG Export Plug-In . SVG Version: 6.00 Build 0)  -->
<!DOCTYPE svg PUBLIC "-//W3C//DTD SVG 1.1//EN" "http://www.w3.org/Graphics/SVG/1.1/DTD/svg11.dtd">
<svg version="1.1" id="Layer_1" xmlns="http://www.w3.org/2000/svg" xmlns:xlink="http://www.w3.org/1999/xlink" x="0px" y="0px"
	 viewBox="0 0 792 612" enable-background="new 0 0 792 612" xml:space="preserve" style="fill: white;">
<g>
	<path d="M394.5,115.8c53.7,0.8,99.2,19.2,136.5,56.4c37.3,37.2,56.2,82.9,56.1,135.3c0,52.4-18.9,98.1-56.3,135.5
		c-37.4,37.3-83.1,56.2-135.5,56.2c-52.4,0-98.1-19-135.3-56.2c-37.3-37.3-56.3-83.1-56.2-135.6c0.1-52.4,19-98.1,56.4-135.4
		C297.6,134.8,343.1,116.7,394.5,115.8z M536.9,304.8c-0.5-38.2-15.3-72.7-45.1-100.6c-30.1-28.1-65.9-40.3-106.7-37.6
		c-34.9,2.3-64.9,16.3-89.5,41.1c-30.1,30.4-43.7,67.4-41,110c2.3,35,16.2,65.1,41.1,89.8c30.5,30.3,67.7,43.9,110.5,41
		c36.7-2.5,67.7-17.8,92.8-44.7C524.2,376.6,536.6,344.4,536.9,304.8z"/>
	<path d="M351.5,307.7c0-22.1,0-44.2-0.1-66.2c0-2,0.6-3.7,1.2-5.5c0.7-2,4.6-3.2,6.5-2.1c8.2,4.7,16.3,9.6,24.5,14.3
		c9.1,5.2,18.2,10.3,27.3,15.5c7.3,4.2,14.5,8.6,21.8,12.8c8.6,5,17.3,10,25.9,15c6.8,3.9,13.7,7.7,20.3,11.9
		c3.4,2.2,3.3,6.3,0.2,8.4c-5.9,4-12.3,7.2-18.4,10.8c-7.8,4.6-15.6,9.2-23.4,13.7c-9.5,5.5-19.2,10.9-28.7,16.4
		c-9.5,5.5-18.8,11.3-28.4,16.5c-7,3.8-13.6,8.1-20.8,11.6c-4.6,2.3-6.9-0.8-7.9-4.8c-0.2-0.6,0-1.3,0-2
		C351.5,351.9,351.5,329.8,351.5,307.7z"/>
</g>
</svg>
