<?xml version="1.0" encoding="utf-8"?>
<!-- Generator: Adobe Illustrator 18.1.1, SVG Export Plug-In . SVG Version: 6.00 Build 0)  -->
<svg version="1.1" id="Layer_1" xmlns="http://www.w3.org/2000/svg" xmlns:xlink="http://www.w3.org/1999/xlink" x="0px" y="0px"
	 viewBox="0 0 792 612" enable-background="new 0 0 792 612" xml:space="preserve">
<g>
	<path fill="#FFFFFF" d="M531.5,384.4c0,5.2,0.4,10.4-0.1,15.5c-0.6,6.9-1.5,13.8-2.6,20.6c-0.7,4.6-1.7,9.1-2.5,13.6
		c-0.9,5-2.5,9.9-4.1,14.7c-2.5,7.6-5.3,15.1-8.7,22.4c-5.4,11.6-12,22.5-19.8,32.7c-7.9,10.2-16.7,19.4-26.8,27.4
		c-6.9,5.5-14.4,10.1-22.2,14.2c-7.9,4.2-16.2,7.5-24.8,9.7c-6.9,1.8-14,3.5-21.2,3.4c-2.8,0-5.4,0.8-8.2,0.8
		c-5.9,0.1-11.8-0.5-17.6-1.3c-6.5-0.8-13-2.5-19.4-4.4c-23.3-7.2-42.5-20.5-58.6-38.6c-5.6-6.4-10.6-13.2-14.9-20.5
		c-4.9-8.2-9.2-16.7-12.3-25.7c-2.8-8-5.1-16.1-6.5-24.5c-0.8-5-1.3-10-2-15c-1.5-10-0.9-20.1-0.5-30.1c0.2-5.8,1.2-11.6,2.3-17.4
		c0.8-4.2,1.5-8.4,2.3-12.7c1-5.5,2.5-10.9,3.7-16.4c1.2-5.4,3-10.6,4.5-15.9c1.4-5.2,3.5-10.2,5.3-15.3c3.9-11,9-21.5,13.9-32.1
		c4.3-9.5,9.3-18.7,14.3-27.9c9.9-18.2,20.2-36.3,30-54.5c9.1-16.9,17.9-34,26.1-51.3c5.5-11.6,10.6-23.5,15.3-35.4
		c3.7-9.3,7.4-18.7,10.8-28.1c2.6-7.2,4.9-14.6,7.3-21.9c0.2-0.7,0.5-1,1.1-1.2c0.9-0.2,0.7,0.6,1,1.1c8.9,16.3,17.8,32.7,26.9,49
		c6.4,11.5,13,22.8,19.4,34.2c12.6,22.1,25.2,44.2,36.8,66.9c5.8,11.4,11.9,22.6,17.2,34.2c5.2,11.5,10.4,23,14.9,34.9
		c3.9,10.1,7.3,20.3,10.5,30.6c1.9,5.9,2.9,12,4.3,18c2,8.5,3,17,4.2,25.7C531.7,370.7,531.2,377.6,531.5,384.4z"/>
</g>
</svg>
