<?xml version="1.0" encoding="utf-8"?>
<!-- Generator: Adobe Illustrator 18.0.0, SVG Export Plug-In . SVG Version: 6.00 Build 0)  -->
<!DOCTYPE svg PUBLIC "-//W3C//DTD SVG 1.1//EN" "http://www.w3.org/Graphics/SVG/1.1/DTD/svg11.dtd">
<svg version="1.1" id="Layer_1" xmlns="http://www.w3.org/2000/svg" xmlns:xlink="http://www.w3.org/1999/xlink" x="0px" y="0px"
	 viewBox="0 0 792 612" enable-background="new 0 0 792 612" xml:space="preserve">
<g>
	<path d="M432.9,528.7c-2.8-4-5.6-8.1-8.5-12.1c-6.3-8.9-12.6-17.8-18.9-26.7c-8-11.3-15.6-22.8-21.7-35.2
		c-3.2-6.4-5.6-13.1-7.6-20.1c-2.6-9-3.4-18-2.5-27.2c0.5-5.2,1.8-10.4,3.5-15.4c5.3-16.1,15.1-29.3,26.4-41.5
		c11-11.9,23.9-21.7,37.2-31c7.7-5.4,15.5-10.5,23-16.2c11.7-8.9,22.2-19.1,28.4-32.8c1.6-3.6,2.6-7.5,3.6-11.3
		c0.9-3.5,0.9-7,1.4-10.5c0.7-4.8-0.5-9.7-1.3-14.5c-0.5-3.2-1.4-6.4-2.2-9.5c-1.8-6.6-4.5-12.8-7.5-18.8
		c-5.6-11.1-12.5-21.5-20.1-31.4c-0.4-0.6-0.5-1-0.2-1.9c4.1,3.3,8.1,6.6,12.1,9.8c10.9,8.8,21.4,18,30.9,28.3
		c9.8,10.6,18.8,21.7,25.2,34.8c2.9,5.9,5.2,12.1,6.7,18.6c1.1,4.7,2,9.4,1.8,14.2c-0.4,10.5-3.6,20-10.3,28.3
		c-6.5,8.2-15,14-24.1,18.9c-7,3.8-14.3,6.9-21.6,10.1c-15,6.6-30.1,13.4-42.6,24.3c-10.2,8.9-18.4,19.5-24.5,31.7
		c-2.8,5.6-4.9,11.4-6.6,17.3c-1.1,3.8-1.7,7.8-2.5,11.7c-1,5-1.1,10.1-1.1,15c0,5.8-0.5,11.8,1,17.6c0.7,2.5,0.6,5.2,1.1,7.8
		c1.1,5.7,2.5,11.3,4,16.9c1.8,6.7,4,13.2,6.3,19.7c2.5,7.1,5.5,14.1,8.3,21.1c1.1,2.8,2.4,5.5,3.5,8.2c0.2,0.4,0,1,0,1.4
		C433.3,528.5,433.1,528.6,432.9,528.7z"/>
	<path d="M393.8,128.5c3.3,3.2,6.4,6,9.3,9c7.6,7.6,15.4,15.1,22.7,23.1c8.6,9.4,16.7,19.3,23.2,30.2c3.9,6.6,7.1,13.7,8.7,21.4
		c0.9,4.5,2,9,1.7,13.7c-0.6,9.2-3.3,17.8-8.1,25.6c-7.5,12.3-17.9,22-28,32c-10.1,9.9-20.2,19.8-29.4,30.4
		c-9.2,10.6-17.7,21.7-25,33.7c-4.6,7.5-8.7,15.4-12,23.6c-2.2,5.5-4.1,11.2-5.5,17c-1.6,6.8-2.3,13.6-3.2,20.4
		c-0.8,6.3,0.1,12.5,0.7,18.6c0.7,7.7,2.9,15.3,5.4,22.7c5,14.7,12.6,28.1,20.7,41.2c0.3,0.5,1,0.9,0.5,1.4
		c-0.6,0.5-1.2-0.1-1.6-0.6c-9.7-8.7-19.6-17.2-28.6-26.7c-8.6-9.1-16.7-18.5-23-29.4c-3.7-6.5-6.7-13.2-8.8-20.4
		c-2.6-8.6-3.5-17.4-2.6-26.2c1-9,3.5-17.7,7.4-26.1c6.2-13.5,14.6-25.5,23.9-37c5.5-6.9,11.3-13.5,17.2-20
		c9.3-10.2,18.5-20.5,27.6-30.9c6.5-7.3,12.6-14.9,18.1-23c4.6-6.7,8.6-13.7,11.3-21.4c1.5-4.2,2.7-8.6,3.5-13.2
		c1.3-7.6,1-15.1,0.5-22.6c-0.3-4.1-1.4-8.3-2.5-12.4c-1.4-5.7-3.4-11.2-5.5-16.6c-2.7-6.8-5.8-13.4-9.3-19.8
		c-3-5.6-5.8-11.2-9.4-16.5C393.5,129.8,393.7,129.4,393.8,128.5z"/>
	<path d="M344.1,87.6c4.1,5.4,8.3,10.7,12.4,16.1c9,11.9,17.8,24,25.5,36.8c4.5,7.4,8.2,15.1,10.7,23.4c1.4,4.7,2.3,9.5,3.1,14.3
		c0.8,5.1,0.2,10.1-0.4,15.1c-0.6,4.7-2.2,9.3-4,13.7c-2.1,5.1-4.6,10-7.7,14.5c-7.8,11.2-16.3,21.9-25.5,32.1
		c-10.1,11.3-20.2,22.6-30,34.1c-7.9,9.2-15.5,18.8-22.1,29c-5.5,8.4-10.2,17.2-13.7,26.7c-1.8,5-3.3,10-4.5,15.2
		c-0.6,2.7-1.2,5.4-1.3,8.3c-0.2,7.3-0.8,14.6,0.1,21.8c0.7,5.6,1.8,11.1,3.5,16.5c1.6,4.9,3.2,9.7,5.2,14.4
		c3.4,8.1,7.7,15.7,12.6,23.1c0.8,1.1,1.6,2.2,2,3.6c-0.5,0.4-0.9,0.1-1.3-0.2c-11.2-8.7-21.7-18.1-31-28.9
		c-7.9-9.1-14.8-19-19.9-30c-2.3-5-4.1-10.1-5.6-15.5c-2.2-8.2-3.4-16.5-2.6-24.9c0.6-6.2,2-12.3,4.3-18.3
		c5.8-14.9,15.8-26.7,26.7-37.9c10.4-10.7,21.4-20.7,32.1-31.1c10.2-9.9,19.9-20.4,28.8-31.6c6.7-8.5,12.4-17.6,16.6-27.5
		c2-4.6,3.2-9.5,4.4-14.4c2.8-10.6,2.2-21.4,1.6-32.1c-0.3-4.7-1.4-9.3-2.5-14c-1.3-5.4-2.8-10.7-4.4-16c-1.8-5.9-4-11.7-6.3-17.5
		c-2.3-5.9-4.6-11.8-7.4-17.5C343.5,88.5,343.5,88,344.1,87.6z"/>
</g>
</svg>
