<?xml version="1.0" encoding="utf-8"?>
<!-- Generator: Adobe Illustrator 18.1.1, SVG Export Plug-In . SVG Version: 6.00 Build 0)  -->
<svg version="1.1" id="Layer_2" xmlns="http://www.w3.org/2000/svg" xmlns:xlink="http://www.w3.org/1999/xlink" x="0px" y="0px"
	 viewBox="-366.2 229.4 164.2 155.5" enable-background="new -366.2 229.4 164.2 155.5" xml:space="preserve">
<circle fill="#FFFFFF" cx="-284" cy="306.5" r="74.9"/>
<g>
	<path d="M-284.1,344.7c-9.8,0-19.7,0-29.5,0c-5.2,0-8.4-3.1-8.4-8.3c0-13.7,0-27.3,0-41c0-1.3,0.3-1.7,1.6-1.7
		c6.3,0.1,12.6,0.1,18.9,0c1.3,0,1.5,0.2,1,1.4c-4.1,9.8,1,20.8,11.1,24c10,3.2,20.5-3,22.8-13.3c0.8-3.7,0.5-7.3-1.1-10.8
		c-0.6-1.3-0.2-1.3,0.9-1.3c6.5,0,12.9,0,19.4,0c1.1,0,1.4,0.3,1.4,1.4c0,13.8,0,27.5,0,41.3c0,5.2-3.2,8.3-8.5,8.3
		C-264.3,344.7-274.2,344.7-284.1,344.7z"/>
	<path d="M-246,276.7c-0.1-5-3.3-8.1-8.3-8.1c-9.9,0-19.8,0-29.7,0c-10,0-20,0-30,0c-4.7,0-8,3.2-8,7.9c0,4.6,0,9.1,0,13.7
		c0,1.1,0.4,1.4,1.5,1.4c7,0,13.9,0,20.9,0c0.8,0,1.3-0.3,1.9-0.9c7.4-8.7,20.2-8.7,27.6,0c0.5,0.6,1,0.8,1.8,0.8
		c7.1,0,14.1,0,21.2,0c1,0,1.4-0.2,1.4-1.3C-246,285.8-245.9,281.2-246,276.7z M-316.9,288.3c-0.9,0-1.1-0.3-1.1-1.1
		c0-3.5,0-6.9,0-10.4c0-1.5,0.9-2.4,2.3-3.3c0,1.2,0,2.1,0,3c0,3.6,0,7.1,0,10.7C-315.7,288-316.1,288.3-316.9,288.3z M-312.6,288.3
		c-0.9,0-1.4-0.2-1.4-1.2c0-4.4,0-8.8,0-13.3c0-1.1,0.6-1.1,1.4-1.2c0.9,0,1.2,0.3,1.2,1.2c-0.1,2.2,0,4.5,0,6.7c0,2.2,0,4.4,0,6.6
		C-311.3,288-311.7,288.3-312.6,288.3z M-306.9,280.4c0,2.2-0.1,4.4,0,6.6c0,1-0.3,1.3-1.3,1.3c-0.9,0-1.2-0.3-1.2-1.2
		c0-4.4,0-8.8,0-13.3c0-0.9,0.3-1.2,1.2-1.2c1,0,1.3,0.3,1.3,1.3C-307,276.1-306.9,278.2-306.9,280.4z M-302.5,287.2
		c0,0.9-0.3,1.1-1.1,1.1c-0.8,0-1.4,0-1.3-1.1c0.1-2.3,0-4.6,0-6.8c0-2.2,0-4.4,0-6.5c0-0.9,0.4-1.2,1.2-1.2c0.8,0,1.3,0.2,1.3,1.1
		C-302.5,278.2-302.5,282.7-302.5,287.2z M-250.3,282.5c-0.1,2.7-1.9,4.7-4.5,5c-2.6,0.3-5.2,0.3-7.7,0c-2.6-0.3-4.3-2.2-4.4-4.8
		c-0.1-1.5-0.1-3.1,0-4.6c0.1-2.7,2-4.8,4.8-4.9c1.2-0.1,2.4,0,3.6,0c0,0,0,0,0,0c1.1,0,2.2,0,3.3,0c2.9,0.1,5,2.2,5.1,5.2
		C-250.3,279.7-250.3,281.1-250.3,282.5z"/>
	<path d="M-284,286.2c-8.9,0-16,7.2-16,16c0,8.8,7.2,15.9,15.9,15.9c8.9,0,16-7.1,16-16C-268.1,293.4-275.2,286.3-284,286.2z
		 M-284,315c-7.1,0-12.9-5.8-12.8-12.9c0-7.2,5.8-12.9,13.1-12.8c7.1,0,12.8,5.9,12.7,13.1C-271.1,309.3-276.9,315-284,315z"/>
</g>
</svg>
