<?xml version="1.0" encoding="utf-8"?>
<!-- Generator: Adobe Illustrator 18.1.1, SVG Export Plug-In . SVG Version: 6.00 Build 0)  -->
<svg version="1.1" id="Layer_1" xmlns="http://www.w3.org/2000/svg" xmlns:xlink="http://www.w3.org/1999/xlink" x="0px" y="0px"
	 viewBox="-366.2 229.4 164.2 155.5" enable-background="new -366.2 229.4 164.2 155.5" xml:space="preserve">
<circle fill="#FFFFFF" cx="-283.9" cy="307.2" r="75.6"/>
<g id="Layer_1_1_" display="none">
	<rect x="-616.9" y="464.5" display="inline" width="531" height="276"/>
	<path display="inline" fill="#191717" d="M-464.3,295.9c-9,0-16.3,7.3-16.3,16.3c0,7.2,4.7,13.3,11.1,15.5c0.8,0.1,1.1-0.4,1.1-0.8
		c0-0.4,0-1.4,0-2.8c-4.5,1-5.5-2.2-5.5-2.2c-0.7-1.9-1.8-2.4-1.8-2.4c-1.5-1,0.1-1,0.1-1c1.6,0.1,2.5,1.7,2.5,1.7
		c1.5,2.5,3.8,1.8,4.7,1.4c0.1-1.1,0.6-1.8,1-2.2c-3.6-0.4-7.4-1.8-7.4-8.1c0-1.8,0.6-3.2,1.7-4.4c-0.2-0.4-0.7-2.1,0.2-4.3
		c0,0,1.4-0.4,4.5,1.7c1.3-0.4,2.7-0.5,4.1-0.5c1.4,0,2.8,0.2,4.1,0.5c3.1-2.1,4.5-1.7,4.5-1.7c0.9,2.2,0.3,3.9,0.2,4.3
		c1,1.1,1.7,2.6,1.7,4.4c0,6.3-3.8,7.6-7.4,8c0.6,0.5,1.1,1.5,1.1,3c0,2.2,0,3.9,0,4.5c0,0.4,0.3,0.9,1.1,0.8
		c6.5-2.2,11.1-8.3,11.1-15.5C-448,303.2-455.3,295.9-464.3,295.9z"/>
	<g display="inline">
		<path fill="#F1676B" d="M-266.3,246.9c-33.3,0-60.4,27-60.4,60.4c0,26.7,17.3,49.3,41.3,57.3c3,0.6,4.1-1.3,4.1-2.9
			c0-1.4-0.1-6.2-0.1-11.2c-16.8,3.7-20.3-7.1-20.3-7.1c-2.7-7-6.7-8.8-6.7-8.8c-5.5-3.7,0.4-3.7,0.4-3.7c6.1,0.4,9.3,6.2,9.3,6.2
			c5.4,9.2,14.1,6.6,17.6,5c0.5-3.9,2.1-6.6,3.8-8.1c-13.4-1.5-27.5-6.7-27.5-29.8c0-6.6,2.4-12,6.2-16.2c-0.6-1.5-2.7-7.7,0.6-16
			c0,0,5.1-1.6,16.6,6.2c4.8-1.3,10-2,15.1-2c5.1,0,10.3,0.7,15.1,2c11.5-7.8,16.6-6.2,16.6-6.2c3.3,8.3,1.2,14.5,0.6,16
			c3.9,4.2,6.2,9.6,6.2,16.2c0,23.2-14.1,28.3-27.6,29.8c2.2,1.9,4.1,5.5,4.1,11.2c0,8.1-0.1,14.6-0.1,16.6c0,1.6,1.1,3.5,4.1,2.9
			c24-8,41.3-30.6,41.3-57.3C-205.9,274-232.9,246.9-266.3,246.9z"/>
		<path fill="#F1676B" d="M-303.8,333.6c-0.1,0.3-0.6,0.4-1,0.2c-0.4-0.2-0.7-0.6-0.5-0.9c0.1-0.3,0.6-0.4,1-0.2
			C-303.9,332.9-303.7,333.3-303.8,333.6L-303.8,333.6z"/>
		<path fill="#F1676B" d="M-301.4,336.4c-0.3,0.3-0.9,0.1-1.2-0.3c-0.4-0.4-0.5-1-0.2-1.3c0.3-0.3,0.8-0.1,1.2,0.3
			C-301.1,335.5-301.1,336.1-301.4,336.4L-301.4,336.4z"/>
		<path fill="#F1676B" d="M-299,339.8c-0.4,0.3-1,0-1.4-0.5c-0.4-0.5-0.4-1.2,0-1.4c0.4-0.3,1,0,1.4,0.5
			C-298.6,338.9-298.6,339.6-299,339.8L-299,339.8z"/>
		<path fill="#F1676B" d="M-295.7,343.2c-0.3,0.4-1,0.3-1.6-0.2c-0.5-0.5-0.7-1.2-0.3-1.5c0.3-0.4,1-0.3,1.6,0.2
			C-295.5,342.2-295.4,342.8-295.7,343.2L-295.7,343.2z"/>
		<path fill="#F1676B" d="M-291.2,345.2c-0.1,0.5-0.8,0.7-1.5,0.5c-0.7-0.2-1.1-0.8-1-1.2c0.1-0.5,0.8-0.7,1.5-0.5
			C-291.5,344.1-291.1,344.7-291.2,345.2L-291.2,345.2z"/>
		<path fill="#F1676B" d="M-286.3,345.5c0,0.5-0.6,0.9-1.3,0.9c-0.7,0-1.3-0.4-1.3-0.9c0-0.5,0.6-0.9,1.3-0.9
			C-286.9,344.6-286.3,345-286.3,345.5L-286.3,345.5z"/>
		<path fill="#F1676B" d="M-281.7,344.7c0.1,0.5-0.4,1-1.1,1.1c-0.7,0.1-1.4-0.2-1.4-0.7c-0.1-0.5,0.4-1,1.1-1.1
			C-282.4,344-281.8,344.2-281.7,344.7L-281.7,344.7z"/>
	</g>
	<g display="inline">
		<g>
			<line fill="none" stroke="#1981BC" stroke-linecap="round" stroke-miterlimit="10" x1="-392" y1="241" x2="-392" y2="241.5"/>
			
				<line fill="none" stroke="#1981BC" stroke-linecap="round" stroke-miterlimit="10" stroke-dasharray="0.9999,1.9999" x1="-392" y1="243.5" x2="-392" y2="377.5"/>
			<line fill="none" stroke="#1981BC" stroke-linecap="round" stroke-miterlimit="10" x1="-392" y1="378.5" x2="-392" y2="379"/>
		</g>
	</g>
	<g display="inline">
		<path fill="#0072BC" d="M-483.6,393c-0.4-0.3-0.9-0.4-1.5-0.4c-0.2,0-0.5,0-0.7,0.1c-0.2,0-0.4,0.1-0.6,0.2
			c-0.2,0.1-0.3,0.3-0.4,0.5s-0.2,0.4-0.2,0.7c0,0.3,0.1,0.5,0.2,0.6c0.2,0.2,0.4,0.3,0.6,0.4c0.3,0.1,0.6,0.2,0.9,0.3
			c0.3,0.1,0.7,0.1,1,0.2c0.3,0.1,0.7,0.2,1,0.3c0.3,0.1,0.6,0.3,0.9,0.4s0.5,0.4,0.6,0.7c0.2,0.3,0.2,0.6,0.2,1.1
			c0,0.5-0.1,0.8-0.3,1.2c-0.2,0.3-0.5,0.6-0.8,0.8s-0.7,0.4-1.1,0.4c-0.4,0.1-0.8,0.1-1.2,0.1c-0.5,0-0.9-0.1-1.4-0.2
			c-0.4-0.1-0.8-0.3-1.1-0.5c-0.3-0.2-0.6-0.6-0.8-0.9c-0.2-0.4-0.3-0.8-0.3-1.4h1.1c0,0.4,0.1,0.7,0.2,0.9c0.1,0.3,0.3,0.5,0.6,0.6
			c0.2,0.2,0.5,0.3,0.8,0.4c0.3,0.1,0.6,0.1,0.9,0.1c0.3,0,0.5,0,0.8-0.1c0.3,0,0.5-0.1,0.7-0.2c0.2-0.1,0.4-0.3,0.5-0.5
			c0.1-0.2,0.2-0.5,0.2-0.8c0-0.3-0.1-0.5-0.2-0.7c-0.2-0.2-0.4-0.3-0.6-0.4c-0.3-0.1-0.6-0.2-0.9-0.3c-0.3-0.1-0.7-0.1-1-0.2
			c-0.3-0.1-0.7-0.2-1-0.3c-0.3-0.1-0.6-0.2-0.9-0.4c-0.3-0.2-0.5-0.4-0.6-0.6c-0.2-0.3-0.2-0.6-0.2-1c0-0.4,0.1-0.8,0.3-1.1
			c0.2-0.3,0.4-0.6,0.7-0.8c0.3-0.2,0.6-0.4,1-0.5c0.4-0.1,0.8-0.1,1.1-0.1c0.4,0,0.8,0.1,1.2,0.2c0.4,0.1,0.7,0.3,1,0.5
			c0.3,0.2,0.5,0.5,0.7,0.8c0.2,0.3,0.3,0.7,0.3,1.2h-1.1C-483,393.7-483.2,393.3-483.6,393z"/>
		<path fill="#0072BC" d="M-479.3,394.2v0.9h0c0.5-0.7,1.1-1.1,2-1.1c0.4,0,0.7,0.1,1,0.2c0.3,0.2,0.5,0.4,0.7,0.8
			c0.2-0.3,0.5-0.6,0.8-0.8c0.3-0.2,0.7-0.3,1.1-0.3c0.3,0,0.6,0,0.8,0.1c0.3,0.1,0.5,0.2,0.6,0.3c0.2,0.1,0.3,0.3,0.4,0.6
			c0.1,0.2,0.1,0.5,0.1,0.8v4.5h-1v-4.1c0-0.2,0-0.4,0-0.5c0-0.2-0.1-0.3-0.2-0.4c-0.1-0.1-0.2-0.2-0.4-0.3
			c-0.2-0.1-0.4-0.1-0.6-0.1c-0.5,0-0.9,0.1-1.2,0.4c-0.3,0.3-0.4,0.7-0.4,1.2v3.9h-1v-4.1c0-0.2,0-0.4-0.1-0.6
			c0-0.2-0.1-0.3-0.2-0.4c-0.1-0.1-0.2-0.2-0.4-0.3c-0.1-0.1-0.3-0.1-0.6-0.1c-0.3,0-0.5,0.1-0.8,0.2s-0.4,0.3-0.5,0.4
			c-0.1,0.2-0.2,0.3-0.3,0.5c-0.1,0.2-0.1,0.3-0.1,0.5v3.9h-1v-6.2H-479.3z"/>
		<path fill="#0072BC" d="M-465.3,400.5c-0.3,0-0.5-0.1-0.6-0.2c-0.2-0.1-0.2-0.4-0.2-0.7c-0.3,0.3-0.6,0.6-1,0.7
			c-0.4,0.1-0.8,0.2-1.2,0.2c-0.3,0-0.5,0-0.8-0.1c-0.2-0.1-0.5-0.2-0.7-0.3c-0.2-0.1-0.3-0.3-0.4-0.5c-0.1-0.2-0.2-0.5-0.2-0.8
			c0-0.4,0.1-0.6,0.2-0.9c0.1-0.2,0.3-0.4,0.5-0.5c0.2-0.1,0.4-0.2,0.7-0.3c0.3-0.1,0.5-0.1,0.8-0.2c0.3-0.1,0.5-0.1,0.8-0.1
			c0.3,0,0.5-0.1,0.7-0.1c0.2-0.1,0.3-0.1,0.5-0.2c0.1-0.1,0.2-0.2,0.2-0.4c0-0.2,0-0.4-0.1-0.5c-0.1-0.1-0.2-0.2-0.3-0.3
			c-0.1-0.1-0.3-0.1-0.4-0.1c-0.2,0-0.3,0-0.5,0c-0.4,0-0.8,0.1-1.1,0.2s-0.4,0.5-0.5,0.9h-1c0-0.4,0.1-0.7,0.2-1
			c0.1-0.3,0.3-0.5,0.6-0.6c0.2-0.2,0.5-0.3,0.8-0.4c0.3-0.1,0.6-0.1,1-0.1c0.3,0,0.6,0,0.8,0.1c0.3,0,0.5,0.1,0.8,0.2
			c0.2,0.1,0.4,0.3,0.5,0.5c0.1,0.2,0.2,0.5,0.2,0.9v3.2c0,0.2,0,0.4,0,0.5c0,0.1,0.1,0.2,0.3,0.2c0.1,0,0.2,0,0.3-0.1v0.8
			C-464.7,400.5-465,400.5-465.3,400.5z M-466.7,397.4c-0.2,0-0.4,0.1-0.7,0.1c-0.2,0-0.5,0.1-0.7,0.1c-0.2,0-0.4,0.1-0.6,0.2
			c-0.2,0.1-0.3,0.2-0.4,0.3c-0.1,0.1-0.2,0.4-0.2,0.6c0,0.2,0,0.3,0.1,0.4c0.1,0.1,0.2,0.2,0.3,0.3c0.1,0.1,0.2,0.1,0.4,0.2
			c0.1,0,0.3,0,0.4,0c0.3,0,0.6,0,0.9-0.1c0.2-0.1,0.4-0.2,0.6-0.3c0.2-0.1,0.3-0.3,0.3-0.5c0.1-0.2,0.1-0.3,0.1-0.5v-1
			C-466.4,397.3-466.5,397.4-466.7,397.4z"/>
		<path fill="#0072BC" d="M-462.5,391.8v8.6h-1v-8.6H-462.5z"/>
		<path fill="#0072BC" d="M-459.9,391.8v8.6h-1v-8.6H-459.9z"/>
		<path fill="#0072BC" d="M-515,409.5v-0.9h1v-0.9c0-0.5,0.1-0.9,0.4-1.1c0.3-0.3,0.7-0.4,1.3-0.4c0.1,0,0.2,0,0.3,0
			c0.1,0,0.2,0,0.3,0.1v0.9c-0.1,0-0.2-0.1-0.3-0.1c-0.1,0-0.2,0-0.3,0c-0.2,0-0.4,0-0.6,0.1c-0.1,0.1-0.2,0.3-0.2,0.6v0.9h1.2v0.9
			h-1.2v5.3h-1v-5.3L-515,409.5L-515,409.5z"/>
		<path fill="#0072BC" d="M-511,410.4c0.1-0.4,0.3-0.7,0.6-1c0.3-0.3,0.6-0.5,0.9-0.7c0.4-0.2,0.8-0.3,1.3-0.3
			c0.5,0,0.9,0.1,1.3,0.3c0.4,0.2,0.7,0.4,0.9,0.7c0.3,0.3,0.4,0.6,0.6,1c0.1,0.4,0.2,0.8,0.2,1.3c0,0.5-0.1,0.9-0.2,1.3
			c-0.1,0.4-0.3,0.7-0.6,1c-0.3,0.3-0.6,0.5-0.9,0.7c-0.4,0.2-0.8,0.2-1.3,0.2c-0.5,0-0.9-0.1-1.3-0.2c-0.4-0.2-0.7-0.4-0.9-0.7
			c-0.3-0.3-0.4-0.6-0.6-1c-0.1-0.4-0.2-0.8-0.2-1.3C-511.2,411.3-511.1,410.8-511,410.4z M-510,412.7c0.1,0.3,0.2,0.5,0.4,0.7
			c0.2,0.2,0.4,0.3,0.6,0.4c0.2,0.1,0.5,0.2,0.8,0.2s0.5-0.1,0.8-0.2c0.2-0.1,0.4-0.3,0.6-0.4c0.2-0.2,0.3-0.4,0.4-0.7
			c0.1-0.3,0.1-0.6,0.1-1c0-0.4,0-0.7-0.1-1c-0.1-0.3-0.2-0.5-0.4-0.7c-0.2-0.2-0.4-0.4-0.6-0.5c-0.2-0.1-0.5-0.2-0.8-0.2
			s-0.5,0.1-0.8,0.2c-0.2,0.1-0.4,0.3-0.6,0.5c-0.2,0.2-0.3,0.4-0.4,0.7c-0.1,0.3-0.1,0.6-0.1,1C-510.1,412.1-510.1,412.4-510,412.7
			z"/>
		<path fill="#0072BC" d="M-503.1,408.6v1.3h0c0.2-0.5,0.6-0.9,0.9-1.1c0.4-0.2,0.8-0.4,1.4-0.3v1.1c-0.4,0-0.8,0.1-1,0.2
			c-0.3,0.1-0.5,0.3-0.7,0.5c-0.2,0.2-0.3,0.5-0.4,0.8c-0.1,0.3-0.1,0.7-0.1,1.1v2.8h-1v-6.2H-503.1z"/>
		<path fill="#0072BC" d="M-494.2,414.8v-6.1h-2.2v-0.8c0.3,0,0.6,0,0.8-0.1c0.3,0,0.5-0.1,0.7-0.2c0.2-0.1,0.4-0.3,0.6-0.5
			c0.2-0.2,0.3-0.5,0.3-0.8h0.8v8.5L-494.2,414.8L-494.2,414.8z"/>
		<path fill="#0072BC" d="M-486.2,407.6c-0.2-0.2-0.6-0.3-1-0.3c-0.4,0-0.8,0.1-1,0.3c-0.3,0.2-0.5,0.5-0.6,0.8
			c-0.1,0.3-0.2,0.7-0.3,1.1c-0.1,0.4-0.1,0.7-0.1,1.1l0,0c0.2-0.4,0.5-0.7,0.9-0.9c0.4-0.2,0.8-0.3,1.2-0.3c0.4,0,0.8,0.1,1.1,0.2
			c0.3,0.1,0.6,0.3,0.8,0.6s0.4,0.5,0.5,0.9c0.1,0.3,0.2,0.7,0.2,1.1c0,0.3,0,0.6-0.1,1c-0.1,0.3-0.3,0.6-0.5,0.9
			c-0.2,0.3-0.5,0.5-0.9,0.7c-0.4,0.2-0.8,0.3-1.4,0.3c-0.6,0-1.1-0.1-1.5-0.4s-0.7-0.6-0.9-1c-0.2-0.4-0.3-0.8-0.4-1.3
			c-0.1-0.5-0.1-0.9-0.1-1.4c0-0.6,0.1-1.1,0.1-1.7c0.1-0.5,0.3-1,0.5-1.5c0.2-0.4,0.6-0.8,1-1c0.4-0.3,0.9-0.4,1.5-0.4
			c0.7,0,1.3,0.2,1.7,0.6s0.7,0.9,0.7,1.6h-1C-485.8,408.1-486,407.8-486.2,407.6z M-488.1,410.4c-0.2,0.1-0.4,0.2-0.6,0.4
			c-0.2,0.2-0.3,0.4-0.3,0.6c-0.1,0.2-0.1,0.5-0.1,0.8c0,0.3,0,0.5,0.1,0.7c0.1,0.2,0.2,0.4,0.3,0.6c0.1,0.2,0.3,0.3,0.6,0.4
			c0.2,0.1,0.5,0.2,0.8,0.2s0.5-0.1,0.7-0.2c0.2-0.1,0.4-0.2,0.5-0.4c0.1-0.2,0.3-0.4,0.3-0.6c0.1-0.2,0.1-0.5,0.1-0.7
			c0-0.3,0-0.5-0.1-0.8c-0.1-0.2-0.2-0.4-0.3-0.6c-0.1-0.2-0.3-0.3-0.5-0.4c-0.2-0.1-0.5-0.2-0.8-0.2
			C-487.6,410.2-487.9,410.3-488.1,410.4z"/>
		<path fill="#0072BC" d="M-482.2,408.6v0.8h0c0.2-0.3,0.4-0.6,0.8-0.8c0.4-0.2,0.8-0.2,1.2-0.2c0.5,0,0.9,0.1,1.3,0.3
			c0.4,0.2,0.7,0.4,0.9,0.7c0.2,0.3,0.4,0.6,0.5,1c0.1,0.4,0.2,0.8,0.2,1.2s-0.1,0.9-0.2,1.2s-0.3,0.7-0.5,1
			c-0.2,0.3-0.5,0.5-0.9,0.7c-0.4,0.2-0.8,0.3-1.2,0.3c-0.2,0-0.3,0-0.5,0c-0.2,0-0.4-0.1-0.6-0.2c-0.2-0.1-0.4-0.2-0.5-0.3
			c-0.2-0.1-0.3-0.3-0.4-0.5h0v3.2h-1v-8.6L-482.2,408.6L-482.2,408.6z M-478.6,410.8c-0.1-0.3-0.2-0.5-0.3-0.7
			c-0.2-0.2-0.4-0.4-0.6-0.5c-0.2-0.1-0.5-0.2-0.9-0.2c-0.3,0-0.6,0.1-0.9,0.2c-0.2,0.1-0.4,0.3-0.6,0.5c-0.2,0.2-0.3,0.5-0.3,0.8
			s-0.1,0.6-0.1,0.9c0,0.3,0,0.6,0.1,0.9c0.1,0.3,0.2,0.5,0.3,0.8c0.2,0.2,0.4,0.4,0.6,0.5c0.2,0.1,0.5,0.2,0.9,0.2s0.6-0.1,0.9-0.2
			c0.2-0.1,0.4-0.3,0.6-0.5c0.1-0.2,0.2-0.5,0.3-0.8c0.1-0.3,0.1-0.6,0.1-0.9C-478.5,411.4-478.5,411.1-478.6,410.8z"/>
		<path fill="#0072BC" d="M-476.7,408.6h1.3l1.5,2.2l1.5-2.2h1.2l-2.1,2.9l2.4,3.3h-1.3l-1.7-2.6l-1.7,2.6h-1.2l2.3-3.3
			L-476.7,408.6z"/>
		<path fill="#0072BC" d="M-466.7,411v1h-3.5v-1H-466.7z"/>
		<path fill="#0072BC" d="M-462.8,414.8v-6.1h-2.2v-0.8c0.3,0,0.6,0,0.8-0.1c0.3,0,0.5-0.1,0.7-0.2c0.2-0.1,0.4-0.3,0.6-0.5
			c0.2-0.2,0.3-0.5,0.3-0.8h0.8v8.5L-462.8,414.8L-462.8,414.8z"/>
		<path fill="#0072BC" d="M-458.7,408.1c0.1-0.4,0.3-0.7,0.5-1c0.2-0.3,0.5-0.5,0.9-0.6c0.4-0.2,0.8-0.2,1.2-0.2
			c0.4,0,0.7,0.1,1,0.2c0.3,0.1,0.6,0.3,0.8,0.5s0.4,0.5,0.6,0.8c0.1,0.3,0.2,0.7,0.2,1.1c0,0.4-0.1,0.7-0.2,1
			c-0.1,0.3-0.3,0.5-0.5,0.8c-0.2,0.2-0.4,0.4-0.7,0.6c-0.2,0.2-0.5,0.4-0.8,0.5c-0.3,0.2-0.5,0.3-0.8,0.5c-0.3,0.2-0.5,0.3-0.7,0.5
			s-0.4,0.4-0.6,0.6c-0.2,0.2-0.3,0.4-0.3,0.7h4.4v0.9h-5.6c0-0.5,0.1-0.9,0.3-1.3c0.1-0.4,0.3-0.7,0.5-0.9c0.2-0.3,0.5-0.5,0.7-0.7
			c0.3-0.2,0.6-0.4,0.9-0.6c0.4-0.2,0.7-0.4,0.9-0.6c0.3-0.2,0.5-0.4,0.7-0.6s0.3-0.4,0.4-0.6c0.1-0.2,0.1-0.5,0.1-0.8
			c0-0.2,0-0.4-0.1-0.6c-0.1-0.2-0.2-0.4-0.4-0.5c-0.1-0.1-0.3-0.2-0.5-0.3c-0.2-0.1-0.4-0.1-0.6-0.1c-0.3,0-0.6,0.1-0.8,0.2
			c-0.2,0.1-0.4,0.3-0.5,0.5c-0.1,0.2-0.2,0.4-0.3,0.7c-0.1,0.3-0.1,0.5-0.1,0.8h-1C-458.9,408.9-458.9,408.5-458.7,408.1z"/>
		<path fill="#0072BC" d="M-452.2,409.7c0-0.3,0.1-0.7,0.1-1c0.1-0.3,0.2-0.6,0.3-0.9s0.3-0.5,0.5-0.8s0.5-0.4,0.8-0.5
			c0.3-0.1,0.7-0.2,1.1-0.2s0.8,0.1,1.1,0.2c0.3,0.1,0.6,0.3,0.8,0.5c0.2,0.2,0.4,0.5,0.5,0.8s0.2,0.6,0.3,0.9
			c0.1,0.3,0.1,0.6,0.1,1c0,0.3,0,0.7,0,1s0,0.6,0,1c0,0.3-0.1,0.7-0.1,1c-0.1,0.3-0.2,0.6-0.3,0.9c-0.1,0.3-0.3,0.5-0.5,0.8
			c-0.2,0.2-0.5,0.4-0.8,0.5c-0.3,0.1-0.7,0.2-1.1,0.2c-0.4,0-0.8-0.1-1.1-0.2c-0.3-0.1-0.6-0.3-0.8-0.5c-0.2-0.2-0.4-0.5-0.5-0.8
			c-0.1-0.3-0.2-0.6-0.3-0.9c-0.1-0.3-0.1-0.6-0.1-1c0-0.3,0-0.7,0-1S-452.2,410-452.2,409.7z M-451.1,411.7c0,0.4,0.1,0.8,0.2,1.1
			c0.1,0.3,0.3,0.6,0.5,0.9c0.2,0.2,0.6,0.4,1,0.4c0.4,0,0.8-0.1,1-0.4c0.2-0.2,0.4-0.5,0.5-0.9s0.2-0.7,0.2-1.1c0-0.4,0-0.8,0-1.1
			c0-0.2,0-0.4,0-0.7c0-0.3,0-0.5-0.1-0.8c0-0.3-0.1-0.5-0.2-0.7c-0.1-0.2-0.2-0.4-0.3-0.6c-0.1-0.2-0.3-0.3-0.5-0.4
			c-0.2-0.1-0.4-0.2-0.7-0.2s-0.5,0.1-0.7,0.2c-0.2,0.1-0.4,0.3-0.5,0.4c-0.1,0.2-0.2,0.4-0.3,0.6c-0.1,0.2-0.1,0.5-0.2,0.7
			c0,0.3-0.1,0.5-0.1,0.8c0,0.3,0,0.5,0,0.7C-451.1,410.9-451.1,411.3-451.1,411.7z"/>
		<path fill="#0072BC" d="M-444.2,408.6v0.8h0c0.2-0.3,0.4-0.6,0.8-0.8c0.4-0.2,0.8-0.2,1.2-0.2c0.5,0,0.9,0.1,1.3,0.3
			c0.4,0.2,0.7,0.4,0.9,0.7c0.2,0.3,0.4,0.6,0.5,1c0.1,0.4,0.2,0.8,0.2,1.2s-0.1,0.9-0.2,1.2s-0.3,0.7-0.5,1
			c-0.2,0.3-0.5,0.5-0.9,0.7c-0.4,0.2-0.8,0.3-1.2,0.3c-0.2,0-0.3,0-0.5,0c-0.2,0-0.4-0.1-0.6-0.2c-0.2-0.1-0.4-0.2-0.5-0.3
			c-0.2-0.1-0.3-0.3-0.4-0.5h0v3.2h-1v-8.6L-444.2,408.6L-444.2,408.6z M-440.6,410.8c-0.1-0.3-0.2-0.5-0.3-0.7
			c-0.2-0.2-0.4-0.4-0.6-0.5c-0.2-0.1-0.5-0.2-0.9-0.2c-0.3,0-0.6,0.1-0.9,0.2c-0.2,0.1-0.4,0.3-0.6,0.5s-0.3,0.5-0.3,0.8
			c-0.1,0.3-0.1,0.6-0.1,0.9c0,0.3,0,0.6,0.1,0.9c0.1,0.3,0.2,0.5,0.3,0.8c0.2,0.2,0.4,0.4,0.6,0.5c0.2,0.1,0.5,0.2,0.9,0.2
			c0.4,0,0.6-0.1,0.9-0.2c0.2-0.1,0.4-0.3,0.6-0.5c0.1-0.2,0.2-0.5,0.3-0.8c0.1-0.3,0.1-0.6,0.1-0.9
			C-440.5,411.4-440.5,411.1-440.6,410.8z"/>
		<path fill="#0072BC" d="M-438.7,408.6h1.3l1.5,2.2l1.5-2.2h1.2l-2.1,2.9l2.4,3.3h-1.3l-1.7-2.6l-1.7,2.6h-1.2l2.3-3.3
			L-438.7,408.6z"/>
	</g>
	<g display="inline">
		<path fill="#0072BC" d="M-281.3,391.8v7.6h4.5v1h-5.7v-8.6H-281.3z"/>
		<path fill="#0072BC" d="M-271.1,400.5c-0.3,0-0.5-0.1-0.6-0.2c-0.2-0.1-0.2-0.4-0.2-0.7c-0.3,0.3-0.6,0.6-1,0.7
			c-0.4,0.1-0.8,0.2-1.2,0.2c-0.3,0-0.5,0-0.8-0.1c-0.2-0.1-0.5-0.2-0.7-0.3c-0.2-0.1-0.3-0.3-0.4-0.5c-0.1-0.2-0.2-0.5-0.2-0.8
			c0-0.4,0.1-0.6,0.2-0.9c0.1-0.2,0.3-0.4,0.5-0.5c0.2-0.1,0.4-0.2,0.7-0.3c0.3-0.1,0.5-0.1,0.8-0.2c0.3-0.1,0.5-0.1,0.8-0.1
			c0.3,0,0.5-0.1,0.7-0.1c0.2-0.1,0.3-0.1,0.5-0.2c0.1-0.1,0.2-0.2,0.2-0.4c0-0.2,0-0.4-0.1-0.5c-0.1-0.1-0.2-0.2-0.3-0.3
			c-0.1-0.1-0.3-0.1-0.4-0.1c-0.2,0-0.3,0-0.5,0c-0.4,0-0.8,0.1-1.1,0.2c-0.3,0.2-0.4,0.5-0.5,0.9h-1c0-0.4,0.1-0.7,0.2-1
			c0.1-0.3,0.3-0.5,0.6-0.6c0.2-0.2,0.5-0.3,0.8-0.4c0.3-0.1,0.6-0.1,1-0.1c0.3,0,0.6,0,0.8,0.1c0.3,0,0.5,0.1,0.8,0.2
			c0.2,0.1,0.4,0.3,0.5,0.5c0.1,0.2,0.2,0.5,0.2,0.9v3.2c0,0.2,0,0.4,0,0.5c0,0.1,0.1,0.2,0.3,0.2c0.1,0,0.2,0,0.3-0.1v0.8
			C-270.6,400.5-270.8,400.5-271.1,400.5z M-272.6,397.4c-0.2,0-0.4,0.1-0.7,0.1c-0.2,0-0.5,0.1-0.7,0.1c-0.2,0-0.4,0.1-0.6,0.2
			c-0.2,0.1-0.3,0.2-0.4,0.3c-0.1,0.1-0.2,0.4-0.2,0.6c0,0.2,0,0.3,0.1,0.4c0.1,0.1,0.2,0.2,0.3,0.3c0.1,0.1,0.2,0.1,0.4,0.2
			c0.1,0,0.3,0,0.4,0c0.3,0,0.6,0,0.9-0.1c0.2-0.1,0.4-0.2,0.6-0.3c0.2-0.1,0.3-0.3,0.3-0.5c0.1-0.2,0.1-0.3,0.1-0.5v-1
			C-272.2,397.3-272.4,397.4-272.6,397.4z"/>
		<path fill="#0072BC" d="M-268.5,394.2v1.3h0c0.2-0.5,0.6-0.9,0.9-1.1c0.4-0.2,0.8-0.4,1.4-0.3v1.1c-0.4,0-0.8,0.1-1,0.2
			c-0.3,0.1-0.5,0.3-0.7,0.5c-0.2,0.2-0.3,0.5-0.4,0.8c-0.1,0.3-0.1,0.7-0.1,1.1v2.8h-1v-6.2H-268.5z"/>
		<path fill="#0072BC" d="M-261.1,402.2c-0.5,0.5-1.2,0.8-2.2,0.8c-0.3,0-0.6,0-0.9-0.1c-0.3-0.1-0.6-0.2-0.8-0.3
			c-0.2-0.1-0.4-0.3-0.6-0.6s-0.2-0.5-0.3-0.9h1c0,0.2,0.1,0.3,0.2,0.5s0.2,0.2,0.4,0.3c0.2,0.1,0.3,0.1,0.5,0.2s0.4,0.1,0.5,0.1
			c0.3,0,0.6-0.1,0.9-0.2c0.2-0.1,0.4-0.3,0.6-0.5c0.2-0.2,0.3-0.4,0.3-0.7c0.1-0.3,0.1-0.6,0.1-0.9v-0.4h0
			c-0.2,0.4-0.4,0.7-0.8,0.8c-0.4,0.2-0.7,0.3-1.1,0.3c-0.5,0-0.9-0.1-1.2-0.3c-0.3-0.2-0.6-0.4-0.9-0.7c-0.2-0.3-0.4-0.6-0.5-1
			c-0.1-0.4-0.2-0.8-0.2-1.2c0-0.4,0-0.7,0.1-1.1c0.1-0.4,0.3-0.7,0.5-1.1c0.2-0.3,0.5-0.6,0.9-0.8c0.4-0.2,0.8-0.3,1.4-0.3
			c0.4,0,0.8,0.1,1.1,0.3s0.6,0.4,0.8,0.8h0v-0.9h1v5.7C-260.4,400.9-260.7,401.7-261.1,402.2z M-262.4,399.4
			c0.2-0.1,0.4-0.3,0.6-0.6c0.1-0.2,0.2-0.5,0.3-0.8c0.1-0.3,0.1-0.6,0.1-0.9c0-0.3,0-0.5-0.1-0.8c-0.1-0.3-0.2-0.5-0.3-0.7
			c-0.1-0.2-0.3-0.4-0.5-0.5c-0.2-0.1-0.5-0.2-0.8-0.2c-0.3,0-0.6,0.1-0.8,0.2c-0.2,0.1-0.4,0.3-0.6,0.5c-0.1,0.2-0.3,0.4-0.3,0.7
			c-0.1,0.3-0.1,0.6-0.1,0.9c0,0.3,0,0.6,0.1,0.8c0.1,0.3,0.2,0.5,0.3,0.8c0.1,0.2,0.3,0.4,0.5,0.6c0.2,0.1,0.5,0.2,0.8,0.2
			C-263,399.6-262.7,399.5-262.4,399.4z"/>
		<path fill="#0072BC" d="M-254.5,400c-0.5,0.4-1,0.5-1.8,0.5c-0.5,0-0.9-0.1-1.3-0.2c-0.4-0.2-0.7-0.4-0.9-0.7
			c-0.2-0.3-0.4-0.6-0.6-1c-0.1-0.4-0.2-0.8-0.2-1.3c0-0.5,0.1-0.9,0.2-1.3c0.1-0.4,0.3-0.7,0.6-1c0.3-0.3,0.6-0.5,0.9-0.7
			c0.4-0.2,0.7-0.2,1.2-0.2c0.6,0,1,0.1,1.4,0.3c0.4,0.2,0.7,0.5,0.9,0.9c0.2,0.4,0.4,0.7,0.5,1.2s0.1,0.8,0.1,1.2h-4.6
			c0,0.3,0,0.5,0.1,0.8s0.2,0.5,0.3,0.6c0.2,0.2,0.4,0.3,0.6,0.5c0.2,0.1,0.5,0.2,0.9,0.2c0.4,0,0.8-0.1,1.1-0.3
			c0.3-0.2,0.5-0.5,0.5-0.9h1C-253.8,399.1-254.1,399.7-254.5,400z M-254.8,396c-0.1-0.2-0.2-0.4-0.4-0.6s-0.3-0.3-0.6-0.4
			c-0.2-0.1-0.4-0.1-0.7-0.1c-0.3,0-0.5,0-0.7,0.1c-0.2,0.1-0.4,0.2-0.5,0.4c-0.2,0.2-0.3,0.3-0.4,0.6c-0.1,0.2-0.1,0.4-0.2,0.7h3.6
			C-254.6,396.5-254.7,396.2-254.8,396z"/>
		<path fill="#0072BC" d="M-251.5,394.2v1.3h0c0.2-0.5,0.6-0.9,0.9-1.1c0.4-0.2,0.8-0.4,1.4-0.3v1.1c-0.4,0-0.8,0.1-1,0.2
			c-0.3,0.1-0.5,0.3-0.7,0.5c-0.2,0.2-0.3,0.5-0.4,0.8c-0.1,0.3-0.1,0.7-0.1,1.1v2.8h-1v-6.2H-251.5z"/>
		<path fill="#0072BC" d="M-298.6,409.5v-0.9h1v-0.9c0-0.5,0.1-0.9,0.4-1.1c0.3-0.3,0.7-0.4,1.3-0.4c0.1,0,0.2,0,0.3,0
			c0.1,0,0.2,0,0.3,0.1v0.9c-0.1,0-0.2-0.1-0.3-0.1c-0.1,0-0.2,0-0.3,0c-0.2,0-0.4,0-0.6,0.1c-0.1,0.1-0.2,0.3-0.2,0.6v0.9h1.2v0.9
			h-1.2v5.3h-1v-5.3L-298.6,409.5L-298.6,409.5z"/>
		<path fill="#0072BC" d="M-294.6,410.4c0.1-0.4,0.3-0.7,0.6-1c0.3-0.3,0.6-0.5,0.9-0.7c0.4-0.2,0.8-0.3,1.3-0.3
			c0.5,0,0.9,0.1,1.3,0.3c0.4,0.2,0.7,0.4,0.9,0.7c0.3,0.3,0.4,0.6,0.6,1c0.1,0.4,0.2,0.8,0.2,1.3c0,0.5-0.1,0.9-0.2,1.3
			c-0.1,0.4-0.3,0.7-0.6,1c-0.3,0.3-0.6,0.5-0.9,0.7c-0.4,0.2-0.8,0.2-1.3,0.2c-0.5,0-0.9-0.1-1.3-0.2s-0.7-0.4-0.9-0.7
			c-0.3-0.3-0.4-0.6-0.6-1c-0.1-0.4-0.2-0.8-0.2-1.3C-294.8,411.3-294.7,410.8-294.6,410.4z M-293.6,412.7c0.1,0.3,0.2,0.5,0.4,0.7
			c0.2,0.2,0.4,0.3,0.6,0.4c0.2,0.1,0.5,0.2,0.8,0.2c0.3,0,0.5-0.1,0.8-0.2c0.2-0.1,0.4-0.3,0.6-0.4c0.2-0.2,0.3-0.4,0.4-0.7
			c0.1-0.3,0.1-0.6,0.1-1c0-0.4,0-0.7-0.1-1c-0.1-0.3-0.2-0.5-0.4-0.7c-0.2-0.2-0.4-0.4-0.6-0.5c-0.2-0.1-0.5-0.2-0.8-0.2
			c-0.3,0-0.5,0.1-0.8,0.2c-0.2,0.1-0.4,0.3-0.6,0.5c-0.2,0.2-0.3,0.4-0.4,0.7c-0.1,0.3-0.1,0.6-0.1,1
			C-293.7,412.1-293.7,412.4-293.6,412.7z"/>
		<path fill="#0072BC" d="M-286.7,408.6v1.3h0c0.2-0.5,0.6-0.9,0.9-1.1c0.4-0.2,0.8-0.4,1.4-0.3v1.1c-0.4,0-0.8,0.1-1,0.2
			c-0.3,0.1-0.5,0.3-0.7,0.5c-0.2,0.2-0.3,0.5-0.4,0.8c-0.1,0.3-0.1,0.7-0.1,1.1v2.8h-1v-6.2L-286.7,408.6
			C-286.7,408.6-286.7,408.6-286.7,408.6z"/>
		<path fill="#0072BC" d="M-277.8,414.8v-6.1h-2.2v-0.8c0.3,0,0.6,0,0.8-0.1c0.3,0,0.5-0.1,0.7-0.2c0.2-0.1,0.4-0.3,0.6-0.5
			c0.2-0.2,0.3-0.5,0.3-0.8h0.8v8.5L-277.8,414.8L-277.8,414.8z"/>
		<path fill="#0072BC" d="M-273.7,408.1c0.1-0.4,0.3-0.7,0.5-1c0.2-0.3,0.5-0.5,0.9-0.6c0.4-0.2,0.8-0.2,1.2-0.2
			c0.4,0,0.7,0.1,1,0.2c0.3,0.1,0.6,0.3,0.8,0.5c0.2,0.2,0.4,0.5,0.6,0.8c0.1,0.3,0.2,0.7,0.2,1.1c0,0.4-0.1,0.7-0.2,1
			c-0.1,0.3-0.3,0.5-0.5,0.8c-0.2,0.2-0.4,0.4-0.7,0.6c-0.2,0.2-0.5,0.4-0.8,0.5c-0.3,0.2-0.5,0.3-0.8,0.5c-0.3,0.2-0.5,0.3-0.7,0.5
			c-0.2,0.2-0.4,0.4-0.6,0.6c-0.2,0.2-0.3,0.4-0.3,0.7h4.4v0.9h-5.6c0-0.5,0.1-0.9,0.3-1.3c0.1-0.4,0.3-0.7,0.5-0.9
			c0.2-0.3,0.5-0.5,0.7-0.7c0.3-0.2,0.6-0.4,0.9-0.6c0.4-0.2,0.7-0.4,0.9-0.6s0.5-0.4,0.7-0.6s0.3-0.4,0.4-0.6
			c0.1-0.2,0.1-0.5,0.1-0.8c0-0.2,0-0.4-0.1-0.6c-0.1-0.2-0.2-0.4-0.4-0.5c-0.1-0.1-0.3-0.2-0.5-0.3c-0.2-0.1-0.4-0.1-0.6-0.1
			c-0.3,0-0.6,0.1-0.8,0.2c-0.2,0.1-0.4,0.3-0.5,0.5c-0.1,0.2-0.2,0.4-0.3,0.7c-0.1,0.3-0.1,0.5-0.1,0.8h-1
			C-273.8,408.9-273.8,408.5-273.7,408.1z"/>
		<path fill="#0072BC" d="M-267.1,409.7c0-0.3,0.1-0.7,0.1-1c0.1-0.3,0.2-0.6,0.3-0.9c0.1-0.3,0.3-0.5,0.5-0.8
			c0.2-0.2,0.5-0.4,0.8-0.5c0.3-0.1,0.7-0.2,1.1-0.2c0.4,0,0.8,0.1,1.1,0.2c0.3,0.1,0.6,0.3,0.8,0.5c0.2,0.2,0.4,0.5,0.5,0.8
			c0.1,0.3,0.2,0.6,0.3,0.9c0.1,0.3,0.1,0.6,0.1,1c0,0.3,0,0.7,0,1s0,0.6,0,1c0,0.3-0.1,0.7-0.1,1c-0.1,0.3-0.2,0.6-0.3,0.9
			c-0.1,0.3-0.3,0.5-0.5,0.8c-0.2,0.2-0.5,0.4-0.8,0.5c-0.3,0.1-0.7,0.2-1.1,0.2c-0.4,0-0.8-0.1-1.1-0.2c-0.3-0.1-0.6-0.3-0.8-0.5
			c-0.2-0.2-0.4-0.5-0.5-0.8c-0.1-0.3-0.2-0.6-0.3-0.9c-0.1-0.3-0.1-0.6-0.1-1c0-0.3,0-0.7,0-1C-267.2,410.3-267.2,410-267.1,409.7z
			 M-266.1,411.7c0,0.4,0.1,0.8,0.2,1.1c0.1,0.3,0.3,0.6,0.5,0.9c0.2,0.2,0.6,0.4,1,0.4c0.4,0,0.8-0.1,1-0.4
			c0.2-0.2,0.4-0.5,0.5-0.9c0.1-0.3,0.2-0.7,0.2-1.1c0-0.4,0-0.8,0-1.1c0-0.2,0-0.4,0-0.7c0-0.3,0-0.5-0.1-0.8
			c0-0.3-0.1-0.5-0.2-0.7c-0.1-0.2-0.2-0.4-0.3-0.6c-0.1-0.2-0.3-0.3-0.5-0.4c-0.2-0.1-0.4-0.2-0.7-0.2c-0.3,0-0.5,0.1-0.7,0.2
			c-0.2,0.1-0.4,0.3-0.5,0.4c-0.1,0.2-0.2,0.4-0.3,0.6c-0.1,0.2-0.1,0.5-0.2,0.7c0,0.3-0.1,0.5-0.1,0.8s0,0.5,0,0.7
			C-266.1,410.9-266.1,411.3-266.1,411.7z"/>
		<path fill="#0072BC" d="M-259.2,408.6v0.8h0c0.2-0.3,0.4-0.6,0.8-0.8c0.4-0.2,0.8-0.2,1.2-0.2c0.5,0,0.9,0.1,1.3,0.3
			c0.4,0.2,0.7,0.4,0.9,0.7c0.2,0.3,0.4,0.6,0.5,1c0.1,0.4,0.2,0.8,0.2,1.2c0,0.4-0.1,0.9-0.2,1.2c-0.1,0.4-0.3,0.7-0.5,1
			c-0.2,0.3-0.5,0.5-0.9,0.7c-0.4,0.2-0.8,0.3-1.2,0.3c-0.2,0-0.3,0-0.5,0c-0.2,0-0.4-0.1-0.6-0.2c-0.2-0.1-0.4-0.2-0.5-0.3
			c-0.2-0.1-0.3-0.3-0.4-0.5h0v3.2h-1v-8.6H-259.2z M-255.5,410.8c-0.1-0.3-0.2-0.5-0.3-0.7c-0.2-0.2-0.4-0.4-0.6-0.5
			c-0.2-0.1-0.5-0.2-0.9-0.2c-0.3,0-0.6,0.1-0.9,0.2s-0.4,0.3-0.6,0.5c-0.2,0.2-0.3,0.5-0.3,0.8c-0.1,0.3-0.1,0.6-0.1,0.9
			c0,0.3,0,0.6,0.1,0.9c0.1,0.3,0.2,0.5,0.3,0.8c0.2,0.2,0.4,0.4,0.6,0.5c0.2,0.1,0.5,0.2,0.9,0.2c0.4,0,0.6-0.1,0.9-0.2
			c0.2-0.1,0.4-0.3,0.6-0.5s0.2-0.5,0.3-0.8c0.1-0.3,0.1-0.6,0.1-0.9C-255.4,411.4-255.4,411.1-255.5,410.8z"/>
		<path fill="#0072BC" d="M-253.6,408.6h1.3l1.5,2.2l1.5-2.2h1.2l-2.1,2.9l2.4,3.3h-1.3l-1.7-2.6l-1.7,2.6h-1.2l2.3-3.3
			L-253.6,408.6z"/>
		<path fill="#0072BC" d="M-237.7,411.4v0.8h-2.6v2.6h-0.8v-2.6h-2.6v-0.8h2.6v-2.6h0.8v2.6H-237.7z"/>
	</g>
	<path display="inline" fill="#FFFFFF" d="M-464.3,571.9c-9,0-16.3,7.3-16.3,16.3c0,7.2,4.7,13.3,11.1,15.5c0.8,0.1,1.1-0.4,1.1-0.8
		c0-0.4,0-1.4,0-2.8c-4.5,1-5.5-2.2-5.5-2.2c-0.7-1.9-1.8-2.4-1.8-2.4c-1.5-1,0.1-1,0.1-1c1.6,0.1,2.5,1.7,2.5,1.7
		c1.5,2.5,3.8,1.8,4.7,1.4c0.1-1.1,0.6-1.8,1-2.2c-3.6-0.4-7.4-1.8-7.4-8.1c0-1.8,0.6-3.2,1.7-4.4c-0.2-0.4-0.7-2.1,0.2-4.3
		c0,0,1.4-0.4,4.5,1.7c1.3-0.4,2.7-0.5,4.1-0.5c1.4,0,2.8,0.2,4.1,0.5c3.1-2.1,4.5-1.7,4.5-1.7c0.9,2.2,0.3,3.9,0.2,4.3
		c1,1.1,1.7,2.6,1.7,4.4c0,6.3-3.8,7.6-7.4,8c0.6,0.5,1.1,1.5,1.1,3c0,2.2,0,3.9,0,4.5c0,0.4,0.3,0.9,1.1,0.8
		c6.5-2.2,11.1-8.3,11.1-15.5C-448,579.2-455.3,571.9-464.3,571.9z"/>
	<g display="inline">
		<path fill="#FFFFFF" d="M-266.3,522.9c-33.3,0-60.4,27-60.4,60.4c0,26.7,17.3,49.3,41.3,57.3c3,0.6,4.1-1.3,4.1-2.9
			c0-1.4-0.1-6.2-0.1-11.2c-16.8,3.7-20.3-7.1-20.3-7.1c-2.7-7-6.7-8.8-6.7-8.8c-5.5-3.7,0.4-3.7,0.4-3.7c6.1,0.4,9.3,6.2,9.3,6.2
			c5.4,9.2,14.1,6.6,17.6,5c0.5-3.9,2.1-6.6,3.8-8.1c-13.4-1.5-27.5-6.7-27.5-29.8c0-6.6,2.4-12,6.2-16.2c-0.6-1.5-2.7-7.7,0.6-16
			c0,0,5.1-1.6,16.6,6.2c4.8-1.3,10-2,15.1-2c5.1,0,10.3,0.7,15.1,2c11.5-7.8,16.6-6.2,16.6-6.2c3.3,8.3,1.2,14.5,0.6,16
			c3.9,4.2,6.2,9.6,6.2,16.2c0,23.2-14.1,28.3-27.6,29.8c2.2,1.9,4.1,5.5,4.1,11.2c0,8.1-0.1,14.6-0.1,16.6c0,1.6,1.1,3.5,4.1,2.9
			c24-8,41.3-30.6,41.3-57.3C-205.9,550-232.9,522.9-266.3,522.9z"/>
		<path fill="#FFFFFF" d="M-303.8,609.6c-0.1,0.3-0.6,0.4-1,0.2c-0.4-0.2-0.7-0.6-0.5-0.9c0.1-0.3,0.6-0.4,1-0.2
			C-303.9,608.9-303.7,609.3-303.8,609.6L-303.8,609.6z"/>
		<path fill="#FFFFFF" d="M-301.4,612.4c-0.3,0.3-0.9,0.1-1.2-0.3c-0.4-0.4-0.5-1-0.2-1.3c0.3-0.3,0.8-0.1,1.2,0.3
			C-301.1,611.5-301.1,612.1-301.4,612.4L-301.4,612.4z"/>
		<path fill="#FFFFFF" d="M-299,615.8c-0.4,0.3-1,0-1.4-0.5c-0.4-0.5-0.4-1.2,0-1.4c0.4-0.3,1,0,1.4,0.5
			C-298.6,614.9-298.6,615.6-299,615.8L-299,615.8z"/>
		<path fill="#FFFFFF" d="M-295.7,619.2c-0.3,0.4-1,0.3-1.6-0.2c-0.5-0.5-0.7-1.2-0.3-1.5c0.3-0.4,1-0.3,1.6,0.2
			C-295.5,618.2-295.4,618.8-295.7,619.2L-295.7,619.2z"/>
		<path fill="#FFFFFF" d="M-291.2,621.2c-0.1,0.5-0.8,0.7-1.5,0.5c-0.7-0.2-1.1-0.8-1-1.2c0.1-0.5,0.8-0.7,1.5-0.5
			C-291.5,620.1-291.1,620.7-291.2,621.2L-291.2,621.2z"/>
		<path fill="#FFFFFF" d="M-286.3,621.5c0,0.5-0.6,0.9-1.3,0.9c-0.7,0-1.3-0.4-1.3-0.9c0-0.5,0.6-0.9,1.3-0.9
			C-286.9,620.6-286.3,621-286.3,621.5L-286.3,621.5z"/>
		<path fill="#FFFFFF" d="M-281.7,620.7c0.1,0.5-0.4,1-1.1,1.1c-0.7,0.1-1.4-0.2-1.4-0.7c-0.1-0.5,0.4-1,1.1-1.1
			C-282.4,620-281.8,620.2-281.7,620.7L-281.7,620.7z"/>
	</g>
	<g display="inline">
		<g>
			<line fill="none" stroke="#1981BC" stroke-linecap="round" stroke-miterlimit="10" x1="-392" y1="517" x2="-392" y2="517.5"/>
			
				<line fill="none" stroke="#1981BC" stroke-linecap="round" stroke-miterlimit="10" stroke-dasharray="0.9999,1.9999" x1="-392" y1="519.5" x2="-392" y2="653.5"/>
			<line fill="none" stroke="#1981BC" stroke-linecap="round" stroke-miterlimit="10" x1="-392" y1="654.5" x2="-392" y2="655"/>
		</g>
	</g>
	<g display="inline">
		<path fill="#0072BC" d="M-483.6,669c-0.4-0.3-0.9-0.4-1.5-0.4c-0.2,0-0.5,0-0.7,0.1c-0.2,0-0.4,0.1-0.6,0.2
			c-0.2,0.1-0.3,0.3-0.4,0.5s-0.2,0.4-0.2,0.7c0,0.3,0.1,0.5,0.2,0.6c0.2,0.2,0.4,0.3,0.6,0.4c0.3,0.1,0.6,0.2,0.9,0.3
			c0.3,0.1,0.7,0.1,1,0.2c0.3,0.1,0.7,0.2,1,0.3c0.3,0.1,0.6,0.3,0.9,0.4c0.3,0.2,0.5,0.4,0.6,0.7c0.2,0.3,0.2,0.6,0.2,1.1
			c0,0.5-0.1,0.8-0.3,1.2c-0.2,0.3-0.5,0.6-0.8,0.8c-0.3,0.2-0.7,0.4-1.1,0.4c-0.4,0.1-0.8,0.1-1.2,0.1c-0.5,0-0.9-0.1-1.4-0.2
			c-0.4-0.1-0.8-0.3-1.1-0.5s-0.6-0.6-0.8-0.9c-0.2-0.4-0.3-0.8-0.3-1.3h1.1c0,0.4,0.1,0.7,0.2,0.9c0.1,0.3,0.3,0.5,0.6,0.6
			c0.2,0.2,0.5,0.3,0.8,0.4c0.3,0.1,0.6,0.1,0.9,0.1c0.3,0,0.5,0,0.8-0.1c0.3,0,0.5-0.1,0.7-0.2c0.2-0.1,0.4-0.3,0.5-0.5
			c0.1-0.2,0.2-0.5,0.2-0.8c0-0.3-0.1-0.5-0.2-0.7c-0.2-0.2-0.4-0.3-0.6-0.5c-0.3-0.1-0.6-0.2-0.9-0.3s-0.7-0.1-1-0.2
			c-0.3-0.1-0.7-0.2-1-0.3c-0.3-0.1-0.6-0.2-0.9-0.4c-0.3-0.2-0.5-0.4-0.6-0.6c-0.2-0.3-0.2-0.6-0.2-1c0-0.4,0.1-0.8,0.3-1.1
			c0.2-0.3,0.4-0.6,0.7-0.8c0.3-0.2,0.6-0.4,1-0.5c0.4-0.1,0.8-0.2,1.1-0.2c0.4,0,0.8,0.1,1.2,0.2c0.4,0.1,0.7,0.3,1,0.5
			c0.3,0.2,0.5,0.5,0.7,0.8s0.3,0.7,0.3,1.2h-1.1C-483,669.7-483.2,669.3-483.6,669z"/>
		<path fill="#0072BC" d="M-479.3,670.2v0.9h0c0.5-0.7,1.1-1.1,2-1.1c0.4,0,0.7,0.1,1,0.2c0.3,0.2,0.5,0.4,0.7,0.8
			c0.2-0.3,0.5-0.6,0.8-0.8c0.3-0.2,0.7-0.3,1.1-0.3c0.3,0,0.6,0,0.8,0.1c0.3,0.1,0.5,0.2,0.6,0.3c0.2,0.1,0.3,0.3,0.4,0.6
			c0.1,0.2,0.1,0.5,0.1,0.8v4.5h-1v-4.1c0-0.2,0-0.4,0-0.5c0-0.2-0.1-0.3-0.2-0.4c-0.1-0.1-0.2-0.2-0.4-0.3s-0.4-0.1-0.6-0.1
			c-0.5,0-0.9,0.1-1.2,0.4c-0.3,0.3-0.4,0.7-0.4,1.2v3.9h-1v-4.1c0-0.2,0-0.4-0.1-0.6c0-0.2-0.1-0.3-0.2-0.4
			c-0.1-0.1-0.2-0.2-0.4-0.3c-0.1-0.1-0.3-0.1-0.6-0.1c-0.3,0-0.5,0.1-0.8,0.2s-0.4,0.3-0.5,0.4c-0.1,0.2-0.2,0.3-0.3,0.5
			c-0.1,0.2-0.1,0.3-0.1,0.5v3.9h-1v-6.2H-479.3z"/>
		<path fill="#0072BC" d="M-465.3,676.5c-0.3,0-0.5-0.1-0.6-0.2c-0.2-0.1-0.2-0.4-0.2-0.7c-0.3,0.3-0.6,0.6-1,0.7
			c-0.4,0.1-0.8,0.2-1.2,0.2c-0.3,0-0.5,0-0.8-0.1c-0.2-0.1-0.5-0.2-0.7-0.3c-0.2-0.1-0.3-0.3-0.4-0.5c-0.1-0.2-0.2-0.5-0.2-0.8
			c0-0.4,0.1-0.6,0.2-0.9c0.1-0.2,0.3-0.4,0.5-0.5c0.2-0.1,0.4-0.2,0.7-0.3c0.3-0.1,0.5-0.1,0.8-0.2c0.3-0.1,0.5-0.1,0.8-0.1
			c0.3,0,0.5-0.1,0.7-0.1c0.2-0.1,0.3-0.1,0.5-0.2s0.2-0.2,0.2-0.4c0-0.2,0-0.4-0.1-0.5c-0.1-0.1-0.2-0.2-0.3-0.3
			c-0.1-0.1-0.3-0.1-0.4-0.1c-0.2,0-0.3,0-0.5,0c-0.4,0-0.8,0.1-1.1,0.2c-0.3,0.2-0.4,0.5-0.5,0.9h-1c0-0.4,0.1-0.7,0.2-1
			c0.1-0.3,0.3-0.5,0.6-0.6c0.2-0.2,0.5-0.3,0.8-0.4c0.3-0.1,0.6-0.1,1-0.1c0.3,0,0.6,0,0.8,0.1c0.3,0,0.5,0.1,0.8,0.2
			c0.2,0.1,0.4,0.3,0.5,0.5c0.1,0.2,0.2,0.5,0.2,0.9v3.2c0,0.2,0,0.4,0,0.5c0,0.1,0.1,0.2,0.3,0.2c0.1,0,0.2,0,0.3-0.1v0.8
			C-464.7,676.5-465,676.5-465.3,676.5z M-466.7,673.4c-0.2,0-0.4,0.1-0.7,0.1c-0.2,0-0.5,0.1-0.7,0.1c-0.2,0-0.4,0.1-0.6,0.2
			c-0.2,0.1-0.3,0.2-0.4,0.3c-0.1,0.1-0.2,0.3-0.2,0.6c0,0.2,0,0.3,0.1,0.4c0.1,0.1,0.2,0.2,0.3,0.3c0.1,0.1,0.2,0.1,0.4,0.2
			c0.1,0,0.3,0,0.4,0c0.3,0,0.6,0,0.9-0.1c0.2-0.1,0.4-0.2,0.6-0.3c0.2-0.1,0.3-0.3,0.3-0.5c0.1-0.2,0.1-0.3,0.1-0.5v-1
			C-466.4,673.3-466.5,673.4-466.7,673.4z"/>
		<path fill="#0072BC" d="M-462.5,667.8v8.6h-1v-8.6H-462.5z"/>
		<path fill="#0072BC" d="M-459.9,667.8v8.6h-1v-8.6H-459.9z"/>
		<path fill="#0072BC" d="M-515,685.5v-0.9h1v-0.9c0-0.5,0.1-0.9,0.4-1.1c0.3-0.3,0.7-0.4,1.3-0.4c0.1,0,0.2,0,0.3,0
			c0.1,0,0.2,0,0.3,0.1v0.9c-0.1,0-0.2-0.1-0.3-0.1c-0.1,0-0.2,0-0.3,0c-0.2,0-0.4,0-0.6,0.1c-0.1,0.1-0.2,0.3-0.2,0.6v0.9h1.2v0.9
			h-1.2v5.3h-1v-5.3H-515L-515,685.5z"/>
		<path fill="#0072BC" d="M-511,686.4c0.1-0.4,0.3-0.7,0.6-1c0.3-0.3,0.6-0.5,0.9-0.7c0.4-0.2,0.8-0.3,1.3-0.3
			c0.5,0,0.9,0.1,1.3,0.3c0.4,0.2,0.7,0.4,0.9,0.7c0.3,0.3,0.4,0.6,0.6,1c0.1,0.4,0.2,0.8,0.2,1.3c0,0.5-0.1,0.9-0.2,1.3
			c-0.1,0.4-0.3,0.7-0.6,1c-0.3,0.3-0.6,0.5-0.9,0.7c-0.4,0.2-0.8,0.2-1.3,0.2c-0.5,0-0.9-0.1-1.3-0.2c-0.4-0.2-0.7-0.4-0.9-0.7
			c-0.3-0.3-0.4-0.6-0.6-1c-0.1-0.4-0.2-0.8-0.2-1.3C-511.2,687.3-511.1,686.8-511,686.4z M-510,688.7c0.1,0.3,0.2,0.5,0.4,0.7
			c0.2,0.2,0.4,0.3,0.6,0.4s0.5,0.2,0.8,0.2s0.5-0.1,0.8-0.2c0.2-0.1,0.4-0.3,0.6-0.4c0.2-0.2,0.3-0.4,0.4-0.7s0.1-0.6,0.1-1
			c0-0.4,0-0.7-0.1-1c-0.1-0.3-0.2-0.5-0.4-0.7c-0.2-0.2-0.4-0.4-0.6-0.5s-0.5-0.2-0.8-0.2s-0.5,0.1-0.8,0.2s-0.4,0.3-0.6,0.5
			c-0.2,0.2-0.3,0.4-0.4,0.7c-0.1,0.3-0.1,0.6-0.1,1C-510.1,688.1-510.1,688.4-510,688.7z"/>
		<path fill="#0072BC" d="M-503.1,684.6v1.3h0c0.2-0.5,0.6-0.9,0.9-1.1c0.4-0.2,0.8-0.4,1.4-0.3v1.1c-0.4,0-0.8,0.1-1,0.2
			c-0.3,0.1-0.5,0.3-0.7,0.5c-0.2,0.2-0.3,0.5-0.4,0.8c-0.1,0.3-0.1,0.7-0.1,1.1v2.8h-1v-6.2H-503.1L-503.1,684.6z"/>
		<path fill="#0072BC" d="M-494.2,690.8v-6.1h-2.2v-0.8c0.3,0,0.6,0,0.8-0.1c0.3,0,0.5-0.1,0.7-0.2c0.2-0.1,0.4-0.3,0.6-0.5
			c0.2-0.2,0.3-0.5,0.3-0.8h0.8v8.5L-494.2,690.8L-494.2,690.8z"/>
		<path fill="#0072BC" d="M-486.2,683.6c-0.2-0.2-0.6-0.3-1-0.3c-0.4,0-0.8,0.1-1,0.3c-0.3,0.2-0.5,0.5-0.6,0.8
			c-0.1,0.3-0.2,0.7-0.3,1.1c-0.1,0.4-0.1,0.7-0.1,1.1l0,0c0.2-0.4,0.5-0.7,0.9-0.9c0.4-0.2,0.8-0.3,1.2-0.3c0.4,0,0.8,0.1,1.1,0.2
			c0.3,0.1,0.6,0.3,0.8,0.6c0.2,0.2,0.4,0.5,0.5,0.9c0.1,0.3,0.2,0.7,0.2,1.1c0,0.3,0,0.6-0.1,1c-0.1,0.3-0.3,0.6-0.5,0.9
			c-0.2,0.3-0.5,0.5-0.9,0.7c-0.4,0.2-0.8,0.3-1.4,0.3c-0.6,0-1.1-0.1-1.5-0.4c-0.4-0.3-0.7-0.6-0.9-1c-0.2-0.4-0.3-0.8-0.4-1.3
			c-0.1-0.5-0.1-0.9-0.1-1.4c0-0.6,0.1-1.1,0.1-1.7c0.1-0.5,0.3-1,0.5-1.5c0.2-0.4,0.6-0.8,1-1c0.4-0.3,0.9-0.4,1.5-0.4
			c0.7,0,1.3,0.2,1.7,0.6c0.4,0.4,0.7,0.9,0.7,1.6h-1C-485.8,684.1-486,683.8-486.2,683.6z M-488.1,686.4c-0.2,0.1-0.4,0.2-0.6,0.4
			c-0.2,0.2-0.3,0.4-0.3,0.6c-0.1,0.2-0.1,0.5-0.1,0.8s0,0.5,0.1,0.7c0.1,0.2,0.2,0.4,0.3,0.6c0.1,0.2,0.3,0.3,0.6,0.4
			c0.2,0.1,0.5,0.1,0.8,0.1s0.5,0,0.7-0.1c0.2-0.1,0.4-0.2,0.5-0.4c0.1-0.2,0.3-0.4,0.3-0.6c0.1-0.2,0.1-0.5,0.1-0.7
			c0-0.3,0-0.5-0.1-0.8c-0.1-0.2-0.2-0.4-0.3-0.6c-0.1-0.2-0.3-0.3-0.5-0.4c-0.2-0.1-0.5-0.2-0.8-0.2
			C-487.6,686.2-487.9,686.3-488.1,686.4z"/>
		<path fill="#0072BC" d="M-482.2,684.6v0.8h0c0.2-0.3,0.4-0.6,0.8-0.8c0.4-0.2,0.8-0.2,1.2-0.2c0.5,0,0.9,0.1,1.3,0.3
			c0.4,0.2,0.7,0.4,0.9,0.7c0.2,0.3,0.4,0.6,0.5,1c0.1,0.4,0.2,0.8,0.2,1.2s-0.1,0.9-0.2,1.2c-0.1,0.4-0.3,0.7-0.5,1
			c-0.2,0.3-0.5,0.5-0.9,0.7c-0.4,0.2-0.8,0.3-1.2,0.3c-0.2,0-0.3,0-0.5,0c-0.2,0-0.4-0.1-0.6-0.2c-0.2-0.1-0.4-0.2-0.5-0.3
			s-0.3-0.3-0.4-0.5h0v3.2h-1v-8.6H-482.2L-482.2,684.6z M-478.6,686.8c-0.1-0.3-0.2-0.5-0.3-0.7c-0.2-0.2-0.4-0.4-0.6-0.5
			c-0.2-0.1-0.5-0.2-0.9-0.2c-0.3,0-0.6,0.1-0.9,0.2c-0.2,0.1-0.4,0.3-0.6,0.5c-0.2,0.2-0.3,0.5-0.3,0.8s-0.1,0.6-0.1,0.9
			c0,0.3,0,0.6,0.1,0.9c0.1,0.3,0.2,0.5,0.3,0.8c0.2,0.2,0.4,0.4,0.6,0.5c0.2,0.1,0.5,0.2,0.9,0.2s0.6-0.1,0.9-0.2s0.4-0.3,0.6-0.5
			c0.1-0.2,0.2-0.5,0.3-0.8c0.1-0.3,0.1-0.6,0.1-0.9C-478.5,687.4-478.5,687.1-478.6,686.8z"/>
		<path fill="#0072BC" d="M-476.7,684.6h1.3l1.5,2.2l1.5-2.2h1.2l-2.1,2.9l2.4,3.3h-1.3l-1.7-2.6l-1.7,2.6h-1.2l2.3-3.3
			L-476.7,684.6z"/>
		<path fill="#0072BC" d="M-466.7,687v1h-3.5v-1H-466.7z"/>
		<path fill="#0072BC" d="M-462.8,690.8v-6.1h-2.2v-0.8c0.3,0,0.6,0,0.8-0.1c0.3,0,0.5-0.1,0.7-0.2c0.2-0.1,0.4-0.3,0.6-0.5
			c0.2-0.2,0.3-0.5,0.3-0.8h0.8v8.5L-462.8,690.8L-462.8,690.8z"/>
		<path fill="#0072BC" d="M-458.7,684.1c0.1-0.4,0.3-0.7,0.5-1c0.2-0.3,0.5-0.5,0.9-0.6c0.4-0.2,0.8-0.2,1.2-0.2
			c0.4,0,0.7,0.1,1,0.2c0.3,0.1,0.6,0.3,0.8,0.5s0.4,0.5,0.6,0.8c0.1,0.3,0.2,0.7,0.2,1.1c0,0.4-0.1,0.7-0.2,1
			c-0.1,0.3-0.3,0.5-0.5,0.8c-0.2,0.2-0.4,0.4-0.7,0.6c-0.2,0.2-0.5,0.4-0.8,0.5c-0.3,0.2-0.5,0.3-0.8,0.5c-0.3,0.2-0.5,0.3-0.7,0.5
			c-0.2,0.2-0.4,0.4-0.6,0.6c-0.2,0.2-0.3,0.4-0.3,0.7h4.4v0.9h-5.6c0-0.5,0.1-0.9,0.3-1.3c0.1-0.4,0.3-0.7,0.5-0.9
			c0.2-0.3,0.5-0.5,0.7-0.7c0.3-0.2,0.6-0.4,0.9-0.6c0.4-0.2,0.7-0.4,0.9-0.6c0.3-0.2,0.5-0.4,0.7-0.6s0.3-0.4,0.4-0.6
			c0.1-0.2,0.1-0.5,0.1-0.8c0-0.2,0-0.4-0.1-0.6c-0.1-0.2-0.2-0.3-0.4-0.5c-0.1-0.1-0.3-0.2-0.5-0.3c-0.2-0.1-0.4-0.1-0.6-0.1
			c-0.3,0-0.6,0.1-0.8,0.2c-0.2,0.1-0.4,0.3-0.5,0.5c-0.1,0.2-0.2,0.4-0.3,0.7s-0.1,0.5-0.1,0.8h-1
			C-458.9,684.9-458.9,684.5-458.7,684.1z"/>
		<path fill="#0072BC" d="M-452.2,685.7c0-0.3,0.1-0.7,0.1-1s0.2-0.6,0.3-0.9s0.3-0.5,0.5-0.8c0.2-0.2,0.5-0.4,0.8-0.5
			c0.3-0.1,0.7-0.2,1.1-0.2s0.8,0.1,1.1,0.2c0.3,0.1,0.6,0.3,0.8,0.5c0.2,0.2,0.4,0.5,0.5,0.8c0.1,0.3,0.2,0.6,0.3,0.9
			s0.1,0.6,0.1,1c0,0.3,0,0.7,0,1s0,0.6,0,1c0,0.3-0.1,0.7-0.1,1c-0.1,0.3-0.2,0.6-0.3,0.9c-0.1,0.3-0.3,0.5-0.5,0.8
			c-0.2,0.2-0.5,0.4-0.8,0.5c-0.3,0.1-0.7,0.2-1.1,0.2c-0.4,0-0.8-0.1-1.1-0.2c-0.3-0.1-0.6-0.3-0.8-0.5c-0.2-0.2-0.4-0.5-0.5-0.8
			c-0.1-0.3-0.2-0.6-0.3-0.9c-0.1-0.3-0.1-0.6-0.1-1c0-0.3,0-0.7,0-1S-452.2,686-452.2,685.7z M-451.1,687.7c0,0.4,0.1,0.8,0.2,1.1
			c0.1,0.3,0.3,0.6,0.5,0.9c0.2,0.2,0.6,0.4,1,0.4c0.4,0,0.8-0.1,1-0.4c0.2-0.2,0.4-0.5,0.5-0.9c0.1-0.3,0.2-0.7,0.2-1.1
			c0-0.4,0-0.8,0-1.1c0-0.2,0-0.4,0-0.7s0-0.5-0.1-0.8c0-0.3-0.1-0.5-0.2-0.7c-0.1-0.2-0.2-0.5-0.3-0.6c-0.1-0.2-0.3-0.3-0.5-0.4
			c-0.2-0.1-0.4-0.2-0.7-0.2s-0.5,0.1-0.7,0.2c-0.2,0.1-0.4,0.3-0.5,0.4c-0.1,0.2-0.2,0.4-0.3,0.6c-0.1,0.2-0.1,0.5-0.2,0.7
			c0,0.3-0.1,0.5-0.1,0.8s0,0.5,0,0.7C-451.1,686.9-451.1,687.3-451.1,687.7z"/>
		<path fill="#0072BC" d="M-444.2,684.6v0.8h0c0.2-0.3,0.4-0.6,0.8-0.8c0.4-0.2,0.8-0.2,1.2-0.2c0.5,0,0.9,0.1,1.3,0.3
			c0.4,0.2,0.7,0.4,0.9,0.7c0.2,0.3,0.4,0.6,0.5,1c0.1,0.4,0.2,0.8,0.2,1.2s-0.1,0.9-0.2,1.2c-0.1,0.4-0.3,0.7-0.5,1
			c-0.2,0.3-0.5,0.5-0.9,0.7c-0.4,0.2-0.8,0.3-1.2,0.3c-0.2,0-0.3,0-0.5,0c-0.2,0-0.4-0.1-0.6-0.2s-0.4-0.2-0.5-0.3
			s-0.3-0.3-0.4-0.5h0v3.2h-1v-8.6H-444.2L-444.2,684.6z M-440.6,686.8c-0.1-0.3-0.2-0.5-0.3-0.7c-0.2-0.2-0.4-0.4-0.6-0.5
			c-0.2-0.1-0.5-0.2-0.9-0.2c-0.3,0-0.6,0.1-0.9,0.2c-0.2,0.1-0.4,0.3-0.6,0.5s-0.3,0.5-0.3,0.8c-0.1,0.3-0.1,0.6-0.1,0.9
			c0,0.3,0,0.6,0.1,0.9c0.1,0.3,0.2,0.5,0.3,0.8c0.2,0.2,0.4,0.4,0.6,0.5c0.2,0.1,0.5,0.2,0.9,0.2c0.4,0,0.6-0.1,0.9-0.2
			c0.2-0.1,0.4-0.3,0.6-0.5c0.1-0.2,0.2-0.5,0.3-0.8c0.1-0.3,0.1-0.6,0.1-0.9C-440.5,687.4-440.5,687.1-440.6,686.8z"/>
		<path fill="#0072BC" d="M-438.7,684.6h1.3l1.5,2.2l1.5-2.2h1.2l-2.1,2.9l2.4,3.3h-1.3l-1.7-2.6l-1.7,2.6h-1.2l2.3-3.3
			L-438.7,684.6z"/>
	</g>
	<g display="inline">
		<path fill="#0072BC" d="M-281.3,667.8v7.6h4.5v1h-5.7v-8.6H-281.3z"/>
		<path fill="#0072BC" d="M-271.1,676.5c-0.3,0-0.5-0.1-0.6-0.2c-0.2-0.1-0.2-0.4-0.2-0.7c-0.3,0.3-0.6,0.6-1,0.7
			c-0.4,0.1-0.8,0.2-1.2,0.2c-0.3,0-0.5,0-0.8-0.1c-0.2-0.1-0.5-0.2-0.7-0.3c-0.2-0.1-0.3-0.3-0.4-0.5c-0.1-0.2-0.2-0.5-0.2-0.8
			c0-0.4,0.1-0.6,0.2-0.9c0.1-0.2,0.3-0.4,0.5-0.5c0.2-0.1,0.4-0.2,0.7-0.3c0.3-0.1,0.5-0.1,0.8-0.2c0.3-0.1,0.5-0.1,0.8-0.1
			c0.3,0,0.5-0.1,0.7-0.1c0.2-0.1,0.3-0.1,0.5-0.2c0.1-0.1,0.2-0.2,0.2-0.4c0-0.2,0-0.4-0.1-0.5c-0.1-0.1-0.2-0.2-0.3-0.3
			c-0.1-0.1-0.3-0.1-0.4-0.1s-0.3,0-0.5,0c-0.4,0-0.8,0.1-1.1,0.2c-0.3,0.2-0.4,0.5-0.5,0.9h-1c0-0.4,0.1-0.7,0.2-1
			c0.1-0.3,0.3-0.5,0.6-0.6c0.2-0.2,0.5-0.3,0.8-0.4c0.3-0.1,0.6-0.1,1-0.1c0.3,0,0.6,0,0.8,0.1c0.3,0,0.5,0.1,0.8,0.2
			c0.2,0.1,0.4,0.3,0.5,0.5c0.1,0.2,0.2,0.5,0.2,0.9v3.2c0,0.2,0,0.4,0,0.5c0,0.1,0.1,0.2,0.3,0.2c0.1,0,0.2,0,0.3-0.1v0.8
			C-270.6,676.5-270.8,676.5-271.1,676.5z M-272.6,673.4c-0.2,0-0.4,0.1-0.7,0.1c-0.2,0-0.5,0.1-0.7,0.1c-0.2,0-0.4,0.1-0.6,0.2
			c-0.2,0.1-0.3,0.2-0.4,0.3c-0.1,0.1-0.2,0.4-0.2,0.6c0,0.2,0,0.3,0.1,0.4c0.1,0.1,0.2,0.2,0.3,0.3c0.1,0.1,0.2,0.1,0.4,0.2
			c0.1,0,0.3,0,0.4,0c0.3,0,0.6,0,0.9-0.1c0.2-0.1,0.4-0.2,0.6-0.3c0.2-0.1,0.3-0.3,0.3-0.5c0.1-0.2,0.1-0.3,0.1-0.5v-1
			C-272.2,673.3-272.4,673.4-272.6,673.4z"/>
		<path fill="#0072BC" d="M-268.5,670.2v1.3h0c0.2-0.5,0.6-0.9,0.9-1.1c0.4-0.2,0.8-0.4,1.4-0.3v1.1c-0.4,0-0.8,0.1-1,0.2
			c-0.3,0.1-0.5,0.3-0.7,0.5c-0.2,0.2-0.3,0.5-0.4,0.8c-0.1,0.3-0.1,0.7-0.1,1.1v2.8h-1v-6.2H-268.5z"/>
		<path fill="#0072BC" d="M-261.1,678.2c-0.5,0.5-1.2,0.8-2.2,0.8c-0.3,0-0.6,0-0.9-0.1c-0.3-0.1-0.6-0.2-0.8-0.3
			c-0.2-0.1-0.4-0.3-0.6-0.6c-0.2-0.2-0.2-0.5-0.3-0.9h1c0,0.2,0.1,0.3,0.2,0.5s0.2,0.2,0.4,0.3c0.2,0.1,0.3,0.1,0.5,0.2
			s0.4,0.1,0.5,0.1c0.3,0,0.6-0.1,0.9-0.2c0.2-0.1,0.4-0.3,0.6-0.5c0.2-0.2,0.3-0.4,0.3-0.7c0.1-0.3,0.1-0.6,0.1-0.9v-0.4h0
			c-0.2,0.4-0.4,0.7-0.8,0.8c-0.4,0.2-0.7,0.3-1.1,0.3c-0.5,0-0.9-0.1-1.2-0.3c-0.3-0.2-0.6-0.4-0.9-0.7c-0.2-0.3-0.4-0.6-0.5-1
			c-0.1-0.4-0.2-0.8-0.2-1.2c0-0.4,0-0.7,0.1-1.1c0.1-0.4,0.3-0.7,0.5-1.1c0.2-0.3,0.5-0.6,0.9-0.8c0.4-0.2,0.8-0.3,1.4-0.3
			c0.4,0,0.8,0.1,1.1,0.3s0.6,0.4,0.8,0.8h0v-0.9h1v5.7C-260.4,676.9-260.7,677.7-261.1,678.2z M-262.4,675.4
			c0.2-0.1,0.4-0.3,0.6-0.6c0.1-0.2,0.2-0.5,0.3-0.8c0.1-0.3,0.1-0.6,0.1-0.9c0-0.3,0-0.5-0.1-0.8c-0.1-0.3-0.2-0.5-0.3-0.7
			c-0.1-0.2-0.3-0.4-0.5-0.5c-0.2-0.1-0.5-0.2-0.8-0.2c-0.3,0-0.6,0.1-0.8,0.2c-0.2,0.1-0.4,0.3-0.6,0.5c-0.1,0.2-0.3,0.4-0.3,0.7
			s-0.1,0.6-0.1,0.9c0,0.3,0,0.6,0.1,0.8c0.1,0.3,0.2,0.5,0.3,0.8c0.1,0.2,0.3,0.4,0.5,0.6c0.2,0.1,0.5,0.2,0.8,0.2
			S-262.7,675.5-262.4,675.4z"/>
		<path fill="#0072BC" d="M-254.5,676c-0.5,0.4-1,0.5-1.8,0.5c-0.5,0-0.9-0.1-1.3-0.2c-0.4-0.2-0.7-0.4-0.9-0.7
			c-0.2-0.3-0.4-0.6-0.6-1c-0.1-0.4-0.2-0.8-0.2-1.3c0-0.5,0.1-0.9,0.2-1.3c0.1-0.4,0.3-0.7,0.6-1c0.3-0.3,0.6-0.5,0.9-0.7
			c0.4-0.2,0.7-0.2,1.2-0.2c0.6,0,1,0.1,1.4,0.3c0.4,0.2,0.7,0.5,0.9,0.9c0.2,0.4,0.4,0.7,0.5,1.2s0.1,0.8,0.1,1.2h-4.6
			c0,0.3,0,0.5,0.1,0.8c0.1,0.2,0.2,0.5,0.3,0.6c0.2,0.2,0.4,0.3,0.6,0.5c0.2,0.1,0.5,0.2,0.9,0.2c0.4,0,0.8-0.1,1.1-0.3
			c0.3-0.2,0.5-0.5,0.5-0.9h1C-253.8,675.1-254.1,675.7-254.5,676z M-254.8,672c-0.1-0.2-0.2-0.4-0.4-0.6s-0.3-0.3-0.6-0.4
			c-0.2-0.1-0.4-0.1-0.7-0.1c-0.3,0-0.5,0-0.7,0.1c-0.2,0.1-0.4,0.2-0.5,0.4c-0.2,0.2-0.3,0.3-0.4,0.6c-0.1,0.2-0.1,0.4-0.2,0.7h3.6
			C-254.6,672.5-254.7,672.2-254.8,672z"/>
		<path fill="#0072BC" d="M-251.5,670.2v1.3h0c0.2-0.5,0.6-0.9,0.9-1.1c0.4-0.2,0.8-0.4,1.4-0.3v1.1c-0.4,0-0.8,0.1-1,0.2
			c-0.3,0.1-0.5,0.3-0.7,0.5c-0.2,0.2-0.3,0.5-0.4,0.8s-0.1,0.7-0.1,1.1v2.8h-1v-6.2H-251.5z"/>
		<path fill="#0072BC" d="M-298.6,685.5v-0.9h1v-0.9c0-0.5,0.1-0.9,0.4-1.1c0.3-0.3,0.7-0.4,1.3-0.4c0.1,0,0.2,0,0.3,0
			c0.1,0,0.2,0,0.3,0.1v0.9c-0.1,0-0.2-0.1-0.3-0.1c-0.1,0-0.2,0-0.3,0c-0.2,0-0.4,0-0.6,0.1c-0.1,0.1-0.2,0.3-0.2,0.6v0.9h1.2v0.9
			h-1.2v5.3h-1v-5.3L-298.6,685.5C-298.6,685.5-298.6,685.5-298.6,685.5z"/>
		<path fill="#0072BC" d="M-294.6,686.4c0.1-0.4,0.3-0.7,0.6-1c0.3-0.3,0.6-0.5,0.9-0.7c0.4-0.2,0.8-0.3,1.3-0.3
			c0.5,0,0.9,0.1,1.3,0.3c0.4,0.2,0.7,0.4,0.9,0.7c0.3,0.3,0.4,0.6,0.6,1c0.1,0.4,0.2,0.8,0.2,1.3c0,0.5-0.1,0.9-0.2,1.3
			c-0.1,0.4-0.3,0.7-0.6,1c-0.3,0.3-0.6,0.5-0.9,0.7c-0.4,0.2-0.8,0.2-1.3,0.2c-0.5,0-0.9-0.1-1.3-0.2c-0.4-0.2-0.7-0.4-0.9-0.7
			c-0.3-0.3-0.4-0.6-0.6-1c-0.1-0.4-0.2-0.8-0.2-1.3C-294.8,687.3-294.7,686.8-294.6,686.4z M-293.6,688.7c0.1,0.3,0.2,0.5,0.4,0.7
			c0.2,0.2,0.4,0.3,0.6,0.5c0.2,0.1,0.5,0.2,0.8,0.2c0.3,0,0.5-0.1,0.8-0.2c0.2-0.1,0.4-0.3,0.6-0.5c0.2-0.2,0.3-0.4,0.4-0.7
			c0.1-0.3,0.1-0.6,0.1-1c0-0.4,0-0.7-0.1-1c-0.1-0.3-0.2-0.5-0.4-0.7c-0.2-0.2-0.4-0.4-0.6-0.5c-0.2-0.1-0.5-0.2-0.8-0.2
			c-0.3,0-0.5,0.1-0.8,0.2c-0.2,0.1-0.4,0.3-0.6,0.5c-0.2,0.2-0.3,0.4-0.4,0.7c-0.1,0.3-0.1,0.6-0.1,1
			C-293.7,688.1-293.7,688.4-293.6,688.7z"/>
		<path fill="#0072BC" d="M-286.7,684.6v1.3h0c0.2-0.5,0.6-0.9,0.9-1.1c0.4-0.2,0.8-0.4,1.4-0.3v1.1c-0.4,0-0.8,0.1-1,0.2
			c-0.3,0.1-0.5,0.3-0.7,0.5c-0.2,0.2-0.3,0.5-0.4,0.8c-0.1,0.3-0.1,0.7-0.1,1.1v2.8h-1v-6.2L-286.7,684.6L-286.7,684.6z"/>
		<path fill="#0072BC" d="M-277.8,690.8v-6.1h-2.2v-0.8c0.3,0,0.6,0,0.8-0.1c0.3,0,0.5-0.1,0.7-0.2c0.2-0.1,0.4-0.3,0.6-0.5
			c0.2-0.2,0.3-0.5,0.3-0.8h0.8v8.5L-277.8,690.8C-277.8,690.8-277.8,690.8-277.8,690.8z"/>
		<path fill="#0072BC" d="M-273.7,684.1c0.1-0.4,0.3-0.7,0.5-1c0.2-0.3,0.5-0.5,0.9-0.6c0.4-0.2,0.8-0.2,1.2-0.2
			c0.4,0,0.7,0.1,1,0.2c0.3,0.1,0.6,0.3,0.8,0.5c0.2,0.2,0.4,0.5,0.6,0.8c0.1,0.3,0.2,0.7,0.2,1.1c0,0.4-0.1,0.7-0.2,1
			c-0.1,0.3-0.3,0.5-0.5,0.8c-0.2,0.2-0.4,0.4-0.7,0.6c-0.2,0.2-0.5,0.4-0.8,0.5c-0.3,0.2-0.5,0.3-0.8,0.5c-0.3,0.2-0.5,0.3-0.7,0.5
			c-0.2,0.2-0.4,0.4-0.6,0.6c-0.2,0.2-0.3,0.4-0.3,0.7h4.4v0.9h-5.6c0-0.5,0.1-0.9,0.3-1.3c0.1-0.4,0.3-0.7,0.5-0.9
			c0.2-0.3,0.5-0.5,0.7-0.7c0.3-0.2,0.6-0.4,0.9-0.6c0.4-0.2,0.7-0.4,0.9-0.6s0.5-0.4,0.7-0.6s0.3-0.4,0.4-0.6
			c0.1-0.2,0.1-0.5,0.1-0.8c0-0.2,0-0.4-0.1-0.6c-0.1-0.2-0.2-0.3-0.4-0.5c-0.1-0.1-0.3-0.2-0.5-0.3s-0.4-0.1-0.6-0.1
			c-0.3,0-0.6,0.1-0.8,0.2c-0.2,0.1-0.4,0.3-0.5,0.5c-0.1,0.2-0.2,0.4-0.3,0.7c-0.1,0.3-0.1,0.5-0.1,0.8h-1
			C-273.8,684.9-273.8,684.5-273.7,684.1z"/>
		<path fill="#0072BC" d="M-267.1,685.7c0-0.3,0.1-0.7,0.1-1c0.1-0.3,0.2-0.6,0.3-0.9c0.1-0.3,0.3-0.5,0.5-0.8
			c0.2-0.2,0.5-0.4,0.8-0.5c0.3-0.1,0.7-0.2,1.1-0.2c0.4,0,0.8,0.1,1.1,0.2c0.3,0.1,0.6,0.3,0.8,0.5c0.2,0.2,0.4,0.5,0.5,0.8
			c0.1,0.3,0.2,0.6,0.3,0.9c0.1,0.3,0.1,0.6,0.1,1c0,0.3,0,0.7,0,1c0,0.3,0,0.6,0,1c0,0.3-0.1,0.7-0.1,1c-0.1,0.3-0.2,0.6-0.3,0.9
			c-0.1,0.3-0.3,0.5-0.5,0.8c-0.2,0.2-0.5,0.4-0.8,0.5c-0.3,0.1-0.7,0.2-1.1,0.2c-0.4,0-0.8-0.1-1.1-0.2c-0.3-0.1-0.6-0.3-0.8-0.5
			c-0.2-0.2-0.4-0.5-0.5-0.8c-0.1-0.3-0.2-0.6-0.3-0.9c-0.1-0.3-0.1-0.6-0.1-1c0-0.3,0-0.7,0-1C-267.2,686.3-267.2,686-267.1,685.7z
			 M-266.1,687.7c0,0.4,0.1,0.8,0.2,1.1c0.1,0.3,0.3,0.6,0.5,0.9c0.2,0.2,0.6,0.4,1,0.4c0.4,0,0.8-0.1,1-0.4
			c0.2-0.2,0.4-0.5,0.5-0.9c0.1-0.3,0.2-0.7,0.2-1.1c0-0.4,0-0.8,0-1.1c0-0.2,0-0.4,0-0.7c0-0.3,0-0.5-0.1-0.8
			c0-0.3-0.1-0.5-0.2-0.7c-0.1-0.2-0.2-0.4-0.3-0.6c-0.1-0.2-0.3-0.3-0.5-0.4c-0.2-0.1-0.4-0.2-0.7-0.2c-0.3,0-0.5,0.1-0.7,0.2
			c-0.2,0.1-0.4,0.3-0.5,0.4c-0.1,0.2-0.2,0.4-0.3,0.6c-0.1,0.2-0.1,0.5-0.2,0.7c0,0.3-0.1,0.5-0.1,0.8s0,0.5,0,0.7
			C-266.1,686.9-266.1,687.3-266.1,687.7z"/>
		<path fill="#0072BC" d="M-259.2,684.6v0.8h0c0.2-0.3,0.4-0.6,0.8-0.8c0.4-0.2,0.8-0.2,1.2-0.2c0.5,0,0.9,0.1,1.3,0.3
			c0.4,0.2,0.7,0.4,0.9,0.7c0.2,0.3,0.4,0.6,0.5,1c0.1,0.4,0.2,0.8,0.2,1.2c0,0.4-0.1,0.9-0.2,1.2c-0.1,0.4-0.3,0.7-0.5,1
			c-0.2,0.3-0.5,0.5-0.9,0.7c-0.4,0.2-0.8,0.3-1.2,0.3c-0.2,0-0.3,0-0.5,0c-0.2,0-0.4-0.1-0.6-0.2c-0.2-0.1-0.4-0.2-0.5-0.3
			c-0.2-0.1-0.3-0.3-0.4-0.5h0v3.2h-1v-8.6L-259.2,684.6L-259.2,684.6z M-255.5,686.8c-0.1-0.3-0.2-0.5-0.3-0.7
			c-0.2-0.2-0.4-0.4-0.6-0.5c-0.2-0.1-0.5-0.2-0.9-0.2c-0.3,0-0.6,0.1-0.9,0.2c-0.2,0.1-0.4,0.3-0.6,0.5c-0.2,0.2-0.3,0.5-0.3,0.8
			c-0.1,0.3-0.1,0.6-0.1,0.9c0,0.3,0,0.6,0.1,0.9c0.1,0.3,0.2,0.5,0.3,0.8c0.2,0.2,0.4,0.4,0.6,0.5c0.2,0.1,0.5,0.2,0.9,0.2
			c0.4,0,0.6-0.1,0.9-0.2c0.2-0.1,0.4-0.3,0.6-0.5c0.1-0.2,0.2-0.5,0.3-0.8c0.1-0.3,0.1-0.6,0.1-0.9
			C-255.4,687.4-255.4,687.1-255.5,686.8z"/>
		<path fill="#0072BC" d="M-253.6,684.6h1.3l1.5,2.2l1.5-2.2h1.2l-2.1,2.9l2.4,3.3h-1.3l-1.7-2.6l-1.7,2.6h-1.2l2.3-3.3
			L-253.6,684.6z"/>
		<path fill="#0072BC" d="M-237.7,687.4v0.8h-2.6v2.6h-0.8v-2.6h-2.6v-0.8h2.6v-2.6h0.8v2.6H-237.7z"/>
	</g>
</g>
<g id="Layer_3">
	<path fill="#231F20" d="M-226.1,271.3c-4.3,1.9-8.8,3.2-13.6,3.7c4.9-2.9,8.7-7.6,10.4-13.1c-4.6,2.7-9.7,4.7-15.1,5.8
		c-4.3-4.6-10.5-7.5-17.3-7.5c-13.1,0-23.7,10.6-23.7,23.7c0,1.9,0.2,3.7,0.6,5.4c-19.7-1-37.2-10.4-48.9-24.8
		c-2,3.5-3.2,7.6-3.2,11.9c0,8.2,4.2,15.5,10.6,19.7c-3.9-0.1-7.5-1.2-10.7-3c0,0.1,0,0.2,0,0.3c0,11.5,8.2,21.1,19,23.3
		c-2,0.5-4.1,0.8-6.2,0.8c-1.5,0-3-0.1-4.5-0.4c3,9.4,11.8,16.3,22.2,16.5c-8.1,6.4-18.3,10.2-29.5,10.2c-1.9,0-3.8-0.1-5.7-0.3
		c10.5,6.7,23,10.7,36.4,10.7c43.6,0,67.5-36.1,67.5-67.5c0-1,0-2.1-0.1-3.1C-233.3,280.3-229.3,276.1-226.1,271.3z"/>
</g>
<g id="Layer_4" display="none">
	<g display="inline">
		<g>
			<g>
				<path fill="#F1676B" d="M-231.7,258.5h-83c-4,0-7.2,3.1-7.2,7v83.3c0,3.9,3.2,7,7.2,7h83c4,0,7.2-3.1,7.2-7v-83.3
					C-224.5,261.7-227.7,258.5-231.7,258.5z"/>
				<path fill="#FFFFFF" d="M-307.4,295h14.4v46.5h-14.4V295z M-300.2,271.9c4.6,0,8.4,3.8,8.4,8.4c0,4.6-3.8,8.4-8.4,8.4
					c-4.6,0-8.4-3.8-8.4-8.4C-308.6,275.7-304.8,271.9-300.2,271.9"/>
				<path fill="#FFFFFF" d="M-283.9,295h13.9v6.3h0.2c1.9-3.7,6.6-7.5,13.7-7.5c14.6,0,17.3,9.6,17.3,22.1v25.5h-14.4v-22.6
					c0-5.4-0.1-12.3-7.5-12.3c-7.5,0-8.7,5.9-8.7,11.9v23h-14.4V295z"/>
			</g>
		</g>
		<g>
			<polygon points="-221.4,337.2 -220,337.2 -220,341.5 -219.2,341.5 -219.2,337.2 -217.8,337.2 -217.8,336.4 -221.4,336.4 			"/>
			<polygon points="-212.9,336.4 -214.4,340.1 -215.9,336.4 -217,336.4 -217,341.5 -216.2,341.5 -216.2,337.6 -214.7,341.5 
				-214.2,341.5 -212.6,337.6 -212.6,341.5 -211.9,341.5 -211.9,336.4 			"/>
		</g>
	</g>
</g>
</svg>
